<svg width="239" height="179" viewBox="0 0 239 179" fill="none" xmlns="http://www.w3.org/2000/svg">
<g opacity="0.1">
<path d="M254.998 20.18C254.998 7.74145 244.816 -2.03174 232.862 -2.03174C223.565 -2.03174 215.154 3.74333 212.055 12.628C211.612 13.5165 209.841 19.2916 209.399 21.0685C202.758 52.165 188.591 58.8286 157.602 66.3806L184.164 95.7001C189.034 65.4921 205.414 50.3881 238.175 42.3918C247.472 40.1707 254.998 29.9532 254.998 20.18Z" fill="#7CB932"/>
<path d="M162.479 42.8367C174.875 42.8367 184.615 32.6192 184.615 20.6249C184.615 8.18627 174.432 -1.58691 162.479 -1.58691C150.083 -1.58691 140.344 8.63051 140.344 20.6249C140.344 32.6192 150.526 42.8367 162.479 42.8367Z" fill="#7CB932"/>
<path d="M92.5186 110.804C104.914 110.804 114.654 100.587 114.654 88.5922C114.654 76.1536 104.472 66.3804 92.5186 66.3804C80.1227 66.3804 70.3831 76.5978 70.3831 88.5922C69.9403 100.587 80.1227 110.804 92.5186 110.804Z" fill="#7CB932"/>
<path d="M71.2764 13.5161C71.7192 13.9603 70.391 18.8469 69.9483 19.2912C69.5056 21.0681 69.0629 23.2893 68.6202 25.0662C67.7348 28.6201 66.4066 31.7298 65.0785 34.8394C62.4222 40.6145 58.8805 45.5011 54.4534 49.4992C43.8284 59.7166 29.2189 63.7148 15.4949 67.2686C15.4949 67.2686 15.4949 67.2686 15.0522 67.2686C6.19796 70.3783 0 78.3745 0 88.592C0 101.031 10.1824 110.804 22.1355 110.804C30.5471 110.804 38.0731 105.917 41.6148 99.2536C43.8284 95.2555 45.1565 90.3689 46.0419 85.4823C47.3701 81.4842 48.6982 77.0418 50.469 73.0437C54.0107 65.0475 59.3233 57.9397 66.4066 52.1646C76.589 44.1684 89.8703 41.9472 102.266 43.2799L71.2764 13.5161Z" fill="#7CB932"/>
<path d="M232.864 178.773C245.26 178.773 255 168.556 255 156.561C255 144.123 244.817 134.35 232.864 134.35C220.468 134.35 210.729 144.567 210.729 156.561C210.729 168.556 220.468 178.773 232.864 178.773Z" fill="#7CB932"/>
<path d="M255.003 88.1473C255.003 75.7087 244.82 65.9355 232.867 65.9355C223.57 65.9355 216.044 71.7106 212.502 79.2626C208.518 88.5916 207.19 99.2532 202.32 108.138C199.221 113.025 195.679 117.466 190.81 121.02C185.94 124.574 180.184 127.24 174.429 129.017C171.33 130.35 167.789 131.238 164.69 132.126C162.476 132.57 160.705 133.015 158.492 133.904C156.278 134.792 154.507 135.681 152.736 137.013C150.966 137.902 149.195 139.234 147.867 140.567C144.768 143.233 142.554 146.786 141.669 150.784C141.226 152.561 140.783 154.782 140.783 156.559C140.783 168.998 150.966 178.771 162.919 178.771C172.216 178.771 179.742 172.996 183.283 165.444C183.726 165 184.612 162.779 184.612 161.89C184.612 161.446 185.054 160.558 185.054 160.114C190.81 132.571 206.747 118.8 237.294 111.248C239.065 110.803 243.935 108.137 245.263 107.693C251.018 103.251 255.003 96.1436 255.003 88.1473Z" fill="#7CB932"/>
<path d="M22.1355 178.773C34.5314 178.773 44.2711 168.556 44.2711 156.561C44.2711 144.123 34.0887 134.35 22.1355 134.35C9.73964 134.35 0 144.567 0 156.561C0 168.556 9.73964 178.773 22.1355 178.773Z" fill="#7CB932"/>
<path d="M167.794 66.8247C167.794 66.8247 167.351 66.3805 166.908 66.3805C165.58 65.9362 163.809 65.9362 162.481 65.9362C161.596 65.9362 160.71 65.9362 159.382 66.3805C135.918 63.2708 110.684 37.5051 115.996 11.7395C122.637 -9.58384 142.559 -17.5801 166.908 -25.5763C168.236 -26.0206 172.663 -28.2418 173.549 -28.6861C179.747 -32.6842 184.174 -39.792 184.174 -47.7882C184.174 -60.2268 173.991 -70 162.038 -70C152.741 -70 144.773 -64.2249 141.231 -56.2287C140.788 -54.896 139.017 -49.1209 139.017 -48.6767C138.575 -47.344 138.575 -46.0113 138.132 -44.6785C137.689 -42.4574 136.804 -39.792 135.918 -37.5708C134.59 -33.5727 132.819 -29.5745 130.163 -26.0206C126.179 -19.357 119.981 -14.4704 113.34 -11.3608C109.356 -9.58384 105.371 -7.8069 101.387 -6.47419C95.6317 -4.69724 89.8764 -3.36454 84.1212 -0.69912C79.6941 1.07782 76.1524 3.74324 73.4961 7.74136C70.8399 11.2952 69.5117 15.7376 69.5117 20.18C69.5117 29.9531 75.7097 38.3936 84.5639 41.5033C85.892 41.9475 89.8764 42.836 91.2045 42.836C118.653 45.0572 139.46 63.2708 137.246 92.5904C134.59 118.8 116.439 127.241 88.5483 134.349C87.2201 134.793 85.892 134.793 84.5639 135.681C76.1524 138.791 69.9544 146.787 69.9544 156.56C69.9544 168.999 80.1368 178.772 92.09 178.772C102.272 178.772 110.684 171.664 113.34 162.335C114.668 157.449 115.996 153.006 117.767 148.564C119.095 144.566 121.309 140.568 123.522 137.014C125.736 133.904 128.392 130.795 131.049 128.129C134.147 125.464 137.246 122.798 140.788 121.021C144.773 118.8 148.757 116.579 153.184 115.246C155.398 114.358 158.054 113.469 160.267 112.581C161.596 112.137 162.924 111.693 164.252 111.248C165.58 110.804 166.908 110.36 168.236 109.916C173.991 107.694 178.419 104.141 181.518 98.8097C183.288 95.7 184.174 92.1461 184.174 88.148C184.617 77.9306 177.533 69.0459 167.794 66.8247Z" fill="#7CB932"/>
<path d="M114.662 -47.7882C114.662 -60.2268 104.48 -70 92.5265 -70C84.5577 -70 77.4744 -65.1134 73.0473 -58.4499C69.0629 -51.7863 68.6202 -43.7901 65.9639 -36.6823C61.9795 -25.1321 54.8961 -16.2474 43.8284 -10.9165C38.0731 -7.8069 31.4325 -5.58572 25.2345 -3.80877C20.8074 -2.47607 16.3803 -1.58759 12.3959 0.633583C4.86982 4.18747 0 11.7395 0 20.6242C0 33.0628 10.1824 42.836 22.1355 42.836C30.547 42.836 38.0731 37.9494 41.6148 30.8416C43.3857 27.2877 44.2711 23.7338 45.1565 19.7357C46.0419 16.1818 47.37 12.6279 48.6982 9.07407C51.7972 2.41053 56.2243 -4.25301 61.9795 -9.1396C66.8493 -13.582 72.6046 -16.6916 78.8025 -19.357C82.3442 -20.6897 85.8859 -22.0224 89.4276 -23.3551C93.4119 -24.6878 97.8391 -25.1321 101.381 -26.9091C108.907 -30.9072 114.662 -38.9035 114.662 -47.7882Z" fill="#7CB932"/>
</g>
</svg>
