<svg width="102" height="99" viewBox="0 0 102 99" fill="none" xmlns="http://www.w3.org/2000/svg">
<path d="M92.7301 17.5948C97.6397 17.5948 101.497 13.5479 101.497 8.79737C101.497 3.87085 97.4643 0 92.7301 0C87.8204 0 83.9629 4.04679 83.9629 8.79737C83.9629 13.7239 87.8204 17.5948 92.7301 17.5948Z" fill="#7CB932"/>
<path d="M9.26717 17.5948C14.1768 17.5948 18.0343 13.5479 18.0343 8.79737C18.0343 3.87085 14.0014 0 9.26717 0C4.35755 0 0.5 4.04679 0.5 8.79737C0.5 13.7239 4.35755 17.5948 9.26717 17.5948Z" fill="#7CB932"/>
<path d="M101.497 35.7173C101.497 30.7908 97.4645 26.9199 92.7302 26.9199C89.048 26.9199 85.7165 29.2072 84.4891 32.7262C84.3138 33.0781 83.6124 35.3654 83.437 36.0692C80.8069 48.3855 75.1959 51.0247 62.9219 54.0158L73.4425 65.6283C75.3712 53.6639 81.8589 47.6817 94.8343 44.5146C98.5166 43.6349 101.497 39.5881 101.497 35.7173Z" fill="#7CB932"/>
<path d="M64.8511 44.6907C69.7608 44.6907 73.6183 40.6439 73.6183 35.8933C73.6183 30.9668 69.5854 27.0959 64.8511 27.0959C59.9415 27.0959 56.084 31.1427 56.084 35.8933C56.084 40.6439 60.1169 44.6907 64.8511 44.6907Z" fill="#7CB932"/>
<path d="M37.1457 71.6104C42.0553 71.6104 45.9129 67.5636 45.9129 62.813C45.9129 57.8865 41.88 54.0156 37.1457 54.0156C32.2361 54.0156 28.3786 58.0624 28.3786 62.813C28.2032 67.5636 32.2361 71.6104 37.1457 71.6104Z" fill="#7CB932"/>
<path d="M28.7303 33.0781C28.9056 33.2541 28.3796 35.1895 28.2042 35.3654C28.0289 36.0692 27.8536 36.949 27.6782 37.6528C27.3275 39.0603 26.8015 40.292 26.2755 41.5236C25.2234 43.8109 23.8207 45.7463 22.0672 47.3299C17.859 51.3766 12.0727 52.9602 6.63702 54.3677C6.63702 54.3677 6.63702 54.3677 6.46167 54.3677C2.95481 55.5994 0.5 58.7664 0.5 62.8132C0.5 67.7397 4.5329 71.6106 9.26717 71.6106C12.5987 71.6106 15.5795 69.6752 16.9823 67.036C17.859 65.4524 18.385 63.517 18.7357 61.5816C19.2617 59.9981 19.7878 58.2386 20.4891 56.6551C21.8919 53.488 23.996 50.6729 26.8015 48.3855C30.8344 45.2185 36.0947 44.3388 41.0043 44.8666L28.7303 33.0781Z" fill="#7CB932"/>
<path d="M92.7301 98.5308C97.6397 98.5308 101.497 94.484 101.497 89.7334C101.497 84.8069 97.4643 80.936 92.7301 80.936C87.8204 80.936 83.9629 84.9828 83.9629 89.7334C83.9629 94.484 87.8204 98.5308 92.7301 98.5308Z" fill="#7CB932"/>
<path d="M101.498 62.637C101.498 57.7104 97.4654 53.8396 92.7312 53.8396C89.049 53.8396 86.0681 56.1269 84.6654 59.118C83.0873 62.8129 82.5613 67.0356 80.6325 70.5546C79.4051 72.49 78.0023 74.2493 76.0736 75.6569C74.1448 77.0645 71.8653 78.1203 69.5859 78.8241C68.3585 79.352 66.9557 79.7037 65.7283 80.0556C64.8516 80.2315 64.1502 80.4076 63.2735 80.7595C62.3968 81.1114 61.6954 81.4633 60.994 81.9912C60.2927 82.3431 59.5913 82.8709 59.0653 83.3987C57.8379 84.4544 56.9611 85.862 56.6105 87.4454C56.4351 88.1491 56.2598 89.0289 56.2598 89.7327C56.2598 94.6592 60.2927 98.53 65.0269 98.53C68.7091 98.53 71.69 96.2427 73.0927 93.2516C73.2681 93.0757 73.6187 92.1961 73.6187 91.844C73.6187 91.6681 73.7941 91.3164 73.7941 91.1404C76.0736 80.2317 82.3859 74.7773 94.4846 71.7862C95.186 71.6103 97.1148 70.5544 97.6408 70.3785C99.9202 68.619 101.498 65.804 101.498 62.637Z" fill="#7CB932"/>
<path d="M9.26717 98.5308C14.1768 98.5308 18.0343 94.484 18.0343 89.7334C18.0343 84.8069 14.0014 80.936 9.26717 80.936C4.35755 80.936 0.5 84.9828 0.5 89.7334C0.5 94.484 4.35755 98.5308 9.26717 98.5308Z" fill="#7CB932"/>
<path d="M66.9575 54.1918C66.9575 54.1918 66.7821 54.0159 66.6068 54.0159C66.0807 53.8399 65.3794 53.8399 64.8533 53.8399C64.5027 53.8399 64.152 53.8399 63.6259 54.0159C54.3327 52.7842 44.3382 42.5793 46.4423 32.3743C49.0724 23.9289 56.9629 20.7618 66.6068 17.5948C67.1328 17.4188 68.8862 16.5391 69.2369 16.3631C71.6917 14.7796 73.4452 11.9644 73.4452 8.79737C73.4452 3.87085 69.4123 0 64.678 0C60.9958 0 57.8396 2.28732 56.4369 5.45437C56.2615 5.98222 55.5601 8.26953 55.5601 8.44548C55.3848 8.97332 55.3848 9.50116 55.2095 10.029C55.0341 10.9087 54.6834 11.9644 54.3327 12.8442C53.8067 14.4277 53.1053 16.0112 52.0533 17.4188C50.4752 20.058 48.0204 21.9935 45.3902 23.2251C43.8121 23.9289 42.2341 24.6327 40.656 25.1605C38.3765 25.8643 36.097 26.3921 33.8176 27.4478C32.0641 28.1516 30.6614 29.2073 29.6093 30.7908C28.5573 32.1984 28.0312 33.9579 28.0312 35.7173C28.0312 39.5882 30.4861 42.9312 33.9929 44.1628C34.519 44.3388 36.097 44.6907 36.6231 44.6907C47.4944 45.5704 55.7355 52.7842 54.8588 64.3968C53.8067 74.7776 46.6176 78.1206 35.571 80.9358C35.045 81.1117 34.519 81.1117 33.9929 81.4636C30.6614 82.6953 28.2066 85.8623 28.2066 89.7332C28.2066 94.6597 32.2395 98.5305 36.9738 98.5305C41.0067 98.5305 44.3382 95.7154 45.3902 92.0205C45.9163 90.0851 46.4423 88.3256 47.1437 86.5661C47.6697 84.9826 48.5464 83.3991 49.4231 81.9915C50.2998 80.7599 51.3519 79.5282 52.404 78.4725C53.6314 77.4169 54.8588 76.3612 56.2615 75.6574C57.8396 74.7776 59.4177 73.8979 61.1711 73.3701C62.0478 73.0182 63.0999 72.6663 63.9766 72.3144C64.5027 72.1384 65.0287 71.9625 65.5547 71.7865C66.0807 71.6106 66.6068 71.4346 67.1328 71.2587C69.4123 70.379 71.1657 68.9714 72.3931 66.86C73.0945 65.6284 73.4452 64.2208 73.4452 62.6373C73.6205 58.5905 70.815 55.0715 66.9575 54.1918Z" fill="#7CB932"/>
<path d="M45.9139 8.79737C45.9139 3.87085 41.881 0 37.1467 0C33.9906 0 31.1851 1.93543 29.4316 4.57464C27.8535 7.21385 27.6782 10.3809 26.6261 13.1961C25.0481 17.7707 22.2426 21.2897 17.859 23.401C15.5795 24.6327 12.9494 25.5124 10.4946 26.2162C8.74113 26.744 6.9877 27.0959 5.40961 27.9757C2.42878 29.3832 0.5 32.3743 0.5 35.8933C0.5 40.8198 4.5329 44.6907 9.26716 44.6907C12.5987 44.6907 15.5795 42.7552 16.9823 39.9401C17.6836 38.5325 18.0343 37.1249 18.385 35.5414C18.7357 34.1338 19.2617 32.7262 19.7878 31.3187C21.0152 28.6794 22.7686 26.0402 25.0481 24.1048C26.9768 22.3453 29.2563 21.1137 31.7111 20.058C33.1138 19.5302 34.5166 19.0023 35.9193 18.4745C37.4974 17.9467 39.2509 17.7707 40.6536 17.0669C43.6344 15.4834 45.9139 12.3163 45.9139 8.79737Z" fill="#7CB932"/>
</svg>
