<svg width="206" height="57" viewBox="0 0 206 57" fill="none" xmlns="http://www.w3.org/2000/svg">
<g clip-path="url(#clip0)">
<path d="M52.7 10.1C55.5 10.1 57.7 7.79998 57.7 5.09998C57.7 2.29998 55.4 0.0999756 52.7 0.0999756C49.9 0.0999756 47.7 2.39998 47.7 5.09998C47.7 7.89998 49.9 10.1 52.7 10.1Z" fill="#7CB932"/>
<path d="M5.1 10.1C7.9 10.1 10.1 7.79998 10.1 5.09998C10.1 2.29998 7.8 0.0999756 5.1 0.0999756C2.3 0.0999756 0.0999985 2.39998 0.0999985 5.09998C0.0999985 7.89998 2.3 10.1 5.1 10.1Z" fill="#D9DADA"/>
<path d="M5.1 10.1C7.9 10.1 10.1 7.79998 10.1 5.09998C10.1 2.29998 7.8 0.0999756 5.1 0.0999756C2.3 0.0999756 0.0999985 2.39998 0.0999985 5.09998C0.0999985 7.89998 2.3 10.1 5.1 10.1Z" stroke="#D9DADA" stroke-width="0.1764"/>
<path d="M57.7 20.4C57.7 17.6 55.4 15.4 52.7 15.4C50.6 15.4 48.7 16.7 48 18.7C47.9 18.9 47.5 20.2 47.4 20.6C45.9 27.6 42.7 29.1 35.7 30.8L41.7 37.4C42.8 30.6 46.5 27.2 53.9 25.4C56 24.9 57.7 22.6 57.7 20.4Z" fill="#D9DADA"/>
<path d="M36.8 25.5C39.6 25.5 41.8 23.2 41.8 20.5C41.8 17.7 39.5 15.5 36.8 15.5C34 15.5 31.8 17.8 31.8 20.5C31.8 23.2 34.1 25.5 36.8 25.5Z" fill="#D9DADA"/>
<path d="M36.8 25.5C39.6 25.5 41.8 23.2 41.8 20.5C41.8 17.7 39.5 15.5 36.8 15.5C34 15.5 31.8 17.8 31.8 20.5C31.8 23.2 34.1 25.5 36.8 25.5Z" stroke="#D9DADA" stroke-width="0.1764"/>
<path d="M21 40.8C23.8 40.8 26 38.5 26 35.8C26 33 23.7 30.8 21 30.8C18.2 30.8 16 33.1 16 35.8C15.9 38.5 18.2 40.8 21 40.8Z" fill="#D9DADA"/>
<path d="M21 40.8C23.8 40.8 26 38.5 26 35.8C26 33 23.7 30.8 21 30.8C18.2 30.8 16 33.1 16 35.8C15.9 38.5 18.2 40.8 21 40.8Z" stroke="#D9DADA" stroke-width="0.1764"/>
<path d="M16.2 18.9C16.3 19 16 20.1 15.9 20.2C15.8 20.6 15.7 21.1 15.6 21.5C15.4 22.3 15.1 23 14.8 23.7C14.2 25 13.4 26.1 12.4 27C10 29.3 6.7 30.2 3.6 31C3.6 31 3.6 31 3.5 31C1.5 31.7 0.0999985 33.5 0.0999985 35.8C0.0999985 38.6 2.4 40.8 5.1 40.8C7 40.8 8.7 39.7 9.5 38.2C10 37.3 10.3 36.2 10.5 35.1C10.8 34.2 11.1 33.2 11.5 32.3C12.3 30.5 13.5 28.9 15.1 27.6C17.4 25.8 20.4 25.3 23.2 25.6L16.2 18.9Z" fill="#D9DADA"/>
<path d="M52.7 56.1C55.5 56.1 57.7 53.8 57.7 51.1C57.7 48.3 55.4 46.1 52.7 46.1C49.9 46.1 47.7 48.4 47.7 51.1C47.7 53.8 49.9 56.1 52.7 56.1Z" fill="#D9DADA"/>
<path d="M52.7 56.1C55.5 56.1 57.7 53.8 57.7 51.1C57.7 48.3 55.4 46.1 52.7 46.1C49.9 46.1 47.7 48.4 47.7 51.1C47.7 53.8 49.9 56.1 52.7 56.1Z" stroke="#D9DADA" stroke-width="0.1764"/>
<path d="M57.7 35.7C57.7 32.9 55.4 30.7 52.7 30.7C50.6 30.7 48.9 32 48.1 33.7C47.2 35.8 46.9 38.2 45.8 40.2C45.1 41.3 44.3 42.2999 43.2 43.0999C42.1 43.8999 40.8 44.5 39.5 44.9C38.8 45.2 38 45.3999 37.3 45.5999C36.8 45.6999 36.4 45.8 35.9 46C35.4 46.2 35 46.4 34.6 46.7C34.2 46.9 33.8 47.2 33.5 47.5C32.8 48.1 32.3 48.9 32.1 49.7999C32 50.1999 31.9 50.6999 31.9 51.0999C31.9 53.8999 34.2 56.0999 36.9 56.0999C39 56.0999 40.7 54.7999 41.5 53.0999C41.6 52.9999 41.8 52.5 41.8 52.2999C41.8 52.1999 41.9 52 41.9 51.9C43.2 45.7 46.8 42.6 53.7 40.9C54.1 40.8 55.2 40.1999 55.5 40.0999C56.8 39.0999 57.7 37.5 57.7 35.7Z" fill="#D9DADA"/>
<path d="M57.7 35.7C57.7 32.9 55.4 30.7 52.7 30.7C50.6 30.7 48.9 32 48.1 33.7C47.2 35.8 46.9 38.2 45.8 40.2C45.1 41.3 44.3 42.2999 43.2 43.0999C42.1 43.8999 40.8 44.5 39.5 44.9C38.8 45.2 38 45.3999 37.3 45.5999C36.8 45.6999 36.4 45.8 35.9 46C35.4 46.2 35 46.4 34.6 46.7C34.2 46.9 33.8 47.2 33.5 47.5C32.8 48.1 32.3 48.8999 32.1 49.7999C32 50.1999 31.9 50.6999 31.9 51.0999C31.9 53.8999 34.2 56.0999 36.9 56.0999C39 56.0999 40.7 54.7999 41.5 53.0999C41.6 52.9999 41.8 52.4999 41.8 52.2999C41.8 52.1999 41.9 52 41.9 51.9C43.2 45.7 46.8 42.6 53.7 40.9C54.1 40.8 55.2 40.1999 55.5 40.0999C56.8 39.0999 57.7 37.5 57.7 35.7Z" stroke="#D9DADA" stroke-width="0.1764"/>
<path d="M5.1 56.1C7.9 56.1 10.1 53.8 10.1 51.1C10.1 48.3 7.8 46.1 5.1 46.1C2.3 46.1 0.0999985 48.4 0.0999985 51.1C0.0999985 53.8 2.3 56.1 5.1 56.1Z" fill="#7CB932"/>
<path d="M38 30.9C38 30.9 37.9 30.8 37.8 30.8C37.5 30.7 37.1 30.7 36.8 30.7C36.6 30.7 36.4 30.7 36.1 30.8C30.8 30.1 25.1 24.3 26.3 18.5C27.8 13.7 32.3 11.9 37.8 10.1C38.1 9.99998 39.1 9.49998 39.3 9.39997C40.7 8.49998 41.7 6.89998 41.7 5.09998C41.7 2.29998 39.4 0.0999756 36.7 0.0999756C34.6 0.0999756 32.8 1.39998 32 3.19998C31.9 3.49998 31.5 4.79998 31.5 4.89998C31.4 5.19998 31.4 5.49998 31.3 5.79998C31.2 6.29998 31 6.89998 30.8 7.39998C30.5 8.29998 30.1 9.19998 29.5 9.99998C28.6 11.5 27.2 12.6 25.7 13.3C24.8 13.7 23.9 14.1 23 14.4C21.7 14.8 20.4 15.1 19.1 15.7C18.1 16.1 17.3 16.7 16.7 17.6C16.1 18.4 15.8 19.4 15.8 20.4C15.8 22.6 17.2 24.5 19.2 25.2C19.5 25.3 20.4 25.5 20.7 25.5C26.9 26 31.6 30.1 31.1 36.7C30.5 42.6 26.4 44.5 20.1 46.1C19.8 46.2 19.5 46.2 19.2 46.4C17.3 47.1 15.9 48.9 15.9 51.1C15.9 53.9 18.2 56.1 20.9 56.1C23.2 56.1 25.1 54.5 25.7 52.4C26 51.3 26.3 50.3 26.7 49.3C27 48.4 27.5 47.5 28 46.7C28.5 46 29.1 45.3 29.7 44.7C30.4 44.1 31.1 43.5 31.9 43.1C32.8 42.6 33.7 42.1 34.7 41.8C35.2 41.6 35.8 41.4 36.3 41.2C36.6 41.1 36.9 41 37.2 40.9C37.5 40.8 37.8 40.7 38.1 40.6C39.4 40.1 40.4 39.3 41.1 38.1C41.5 37.4 41.7 36.6 41.7 35.7C41.8 33.4 40.2 31.4 38 30.9Z" fill="#7CB932"/>
<path d="M26 5.09998C26 2.29998 23.7 0.0999756 21 0.0999756C19.2 0.0999756 17.6 1.19998 16.6 2.69998C15.7 4.19998 15.6 5.99998 15 7.59998C14.1 10.2 12.5 12.2 10 13.4C8.7 14.1 7.2 14.6 5.8 15C4.8 15.3 3.8 15.5 2.9 16C1.2 16.8 0.0999985 18.5 0.0999985 20.5C0.0999985 23.3 2.4 25.5 5.1 25.5C7 25.5 8.7 24.4 9.5 22.8C9.9 22 10.1 21.2 10.3 20.3C10.5 19.5 10.8 18.7 11.1 17.9C11.8 16.4 12.8 14.9 14.1 13.8C15.2 12.8 16.5 12.1 17.9 11.5C18.7 11.2 19.5 10.9 20.3 10.6C21.2 10.3 22.2 10.2 23 9.79998C24.7 8.89998 26 7.09998 26 5.09998Z" fill="#D9DADA"/>
<path d="M66.8 12L67.4 11.3C68.8 12.6 70 13.1 71.8 13.1C73.6 13.1 74.9 12.1 74.9 10.6C74.9 9.30005 74.2 8.50005 71.4 8.00005C68.4 7.40005 67.2 6.40005 67.2 4.50005C67.2 2.70005 68.9 1.30005 71.2 1.30005C73 1.30005 74.2 1.80005 75.4 2.80005L74.8 3.50005C73.6 2.50005 72.5 2.10005 71.1 2.10005C69.3 2.10005 68.1 3.10005 68.1 4.40005C68.1 5.70005 68.8 6.50005 71.7 7.10005C74.6 7.70005 75.8 8.70005 75.8 10.5C75.8 12.5 74.1 13.9 71.7 13.9C69.8 14 68.3 13.3 66.8 12Z" fill="#2B2A29"/>
<path d="M89.9 7.70005C89.9 4.60005 87.7 2.10005 84.6 2.10005C81.5 2.10005 79.4 4.60005 79.4 7.60005C79.4 10.7 81.6 13.2 84.7 13.2C87.7 13.2 89.9 10.7 89.9 7.70005ZM78.4 7.70005C78.4 4.30005 80.9 1.30005 84.6 1.30005C88.3 1.30005 90.8 4.30005 90.8 7.70005C90.8 11.1 88.3 14.1 84.6 14.1C80.8 14 78.4 11 78.4 7.70005Z" fill="#2B2A29"/>
<path d="M93.9 1.40002H102.6V2.20002H94.8V7.30002H101.8V8.10002H94.8V13.7H93.9V1.40002Z" fill="#2B2A29"/>
<path d="M108.9 2.30002H104.6V1.40002H114.1V2.20002H109.8V13.7H108.9V2.30002Z" fill="#2B2A29"/>
<path d="M116 1.40002H117L120.9 12.4L124.5 1.40002H125.2L128.8 12.4L132.7 1.40002H133.7L129.2 13.8H128.5L124.9 3.10002L121.3 13.8H120.5L116 1.40002Z" fill="#2B2A29"/>
<path d="M143.2 9.50002L139.9 2.30002L136.6 9.50002H143.2ZM139.5 1.40002H140.4L146.2 13.8H145.2L143.6 10.3H136.3L134.7 13.8H133.7L139.5 1.40002Z" fill="#2B2A29"/>
<path d="M153.8 7.90002C155.9 7.90002 157.4 6.90002 157.4 5.10002C157.4 3.40002 156.1 2.40002 153.8 2.40002H149.6V8.00002H153.8V7.90002ZM148.8 1.40002H154C155.5 1.40002 156.7 1.90002 157.5 2.60002C158.1 3.20002 158.4 4.00002 158.4 4.90002C158.4 7.00002 156.9 8.20002 154.8 8.40002L158.9 13.7H157.7L153.8 8.60002H149.8V13.7H148.9V1.40002H148.8Z" fill="#2B2A29"/>
<path d="M161.5 1.40002H170.3V2.20002H162.4V7.10002H169.5V8.00002H162.4V13H170.4V13.8H161.5V1.40002Z" fill="#2B2A29"/>
<path d="M71.7 33.7C75.1 33.7 77.3 31.4 77.3 28.4C77.3 25.4999 75.1 23.1 71.7 23.1H68.5V33.7999H71.7V33.7ZM67.6 22.2H71.7C75.6 22.2 78.3 24.8999 78.3 28.2999C78.3 31.7999 75.6 34.5 71.7 34.5H67.6V22.2Z" fill="#2B2A29"/>
<path d="M81.4 22.2H90.2V23H82.3V27.7999H89.4V28.6H82.3V33.5999H90.3V34.4H81.4V22.2Z" fill="#2B2A29"/>
<path d="M92.2 22.2H93.2L98 33.5999L102.9 22.2H103.9L98.5 34.5999H97.7L92.2 22.2Z" fill="#2B2A29"/>
<path d="M106.5 22.2H115.3V23H107.4V27.7999H114.5V28.6H107.4V33.5999H115.4V34.4H106.5V22.2Z" fill="#2B2A29"/>
<path d="M118.3 22.2H119.2V33.7H126.5V34.5H118.3V22.2Z" fill="#2B2A29"/>
<path d="M139.5 28.4C139.5 25.3 137.3 22.8 134.2 22.8C131.1 22.8 128.9 25.3 128.9 28.3C128.9 31.4 131.1 33.9 134.2 33.9C137.3 33.9 139.5 31.5 139.5 28.4ZM128 28.4C128 25 130.5 22 134.2 22C138 22 140.4 25 140.4 28.3C140.4 31.7 137.9 34.7 134.2 34.7C130.5 34.8 128 31.8 128 28.4Z" fill="#2B2A29"/>
<path d="M147.9 29.1C150.2 29.1 151.7 27.9 151.7 26.1C151.7 24.1 150.2 23.1 147.9 23.1H144.4V29.2H147.9V29.1ZM143.6 22.2H148.1C150.8 22.2 152.7 23.6 152.7 26C152.7 28.6 150.4 29.9 147.9 29.9H144.6V34.5H143.7V22.2H143.6Z" fill="#2B2A29"/>
<path d="M155.3 22.2H156.2L161.2 29.5L166.2 22.2H167.1V34.5999H166.2V23.7999L161.3 30.9H161.2L156.3 23.7999V34.5H155.4V22.2H155.3Z" fill="#2B2A29"/>
<path d="M170.7 22.2H179.5V23H171.6V27.7999H178.7V28.6H171.6V33.5999H179.6V34.4H170.7V22.2Z" fill="#2B2A29"/>
<path d="M182.5 22.2H183.4L191.9 33V22.2H192.8V34.5999H192.1L183.4 23.6V34.5999H182.5V22.2Z" fill="#2B2A29"/>
<path d="M199.9 23H195.6V22.2H205.1V23H200.8V34.5H199.9V23Z" fill="#2B2A29"/>
<path d="M67.6 42.9H68.5V48.6H76.4V42.9H77.3V55.3H76.4V49.5H68.5V55.3H67.6V42.9Z" fill="#2B2A29"/>
<path d="M80.8 50.2V43H81.7V50.1C81.7 53 83.3 54.7 85.9 54.7C88.4 54.7 90 53.2 90 50.2V43H91V50.1C91 53.6 88.9 55.5 85.9 55.5C82.9 55.5 80.8 53.6 80.8 50.2Z" fill="#2B2A29"/>
<path d="M99.9 54.4C102 54.4 103.4 53.4 103.4 51.9C103.4 50.4 102.1 49.5 99.6 49.5H95.4V54.5H99.9V54.4ZM99.4 48.6C101.3 48.6 102.6 47.7 102.6 46.1C102.6 44.7 101.5 43.8 99.5 43.8H95.3V48.6H99.4ZM94.5 42.9H99.6C101 42.9 102.1 43.3 102.8 44C103.3 44.5 103.6 45.2 103.6 45.9C103.6 47.6 102.5 48.4 101.5 48.8C103 49.2 104.3 50 104.3 51.7C104.3 53.8 102.5 55.1 99.9 55.1H94.5V42.9Z" fill="#2B2A29"/>
</g>
<defs>
<clipPath id="clip0">
<rect width="205.1" height="56.2" fill="white"/>
</clipPath>
</defs>
</svg>
