<svg width="120" height="70" viewBox="0 0 120 70" fill="none" xmlns="http://www.w3.org/2000/svg">
<g clip-path="url(#clip0_7_434)">
<path d="M34.3351 25.4227C34.3351 26.8632 34.4907 28.0311 34.7631 28.8877C35.0745 29.7442 35.4636 30.6785 36.0084 31.6908C36.203 32.0022 36.2809 32.3137 36.2809 32.5862C36.2809 32.9755 36.0474 33.3648 35.5415 33.7542L33.0898 35.3893C32.7395 35.6229 32.3893 35.7397 32.078 35.7397C31.6888 35.7397 31.2996 35.545 30.9105 35.1947C30.3657 34.6107 29.8987 33.9878 29.5095 33.3648C29.1204 32.703 28.7312 31.9633 28.3031 31.0679C25.2677 34.6496 21.454 36.4405 16.8619 36.4405C13.593 36.4405 10.9856 35.5061 9.07875 33.6374C7.17188 31.7686 6.19899 29.277 6.19899 26.1624C6.19899 22.8532 7.36646 20.1669 9.74032 18.1424C12.1142 16.1179 15.2664 15.1057 19.2747 15.1057C20.5978 15.1057 21.9599 15.2225 23.3997 15.4171C24.8396 15.6118 26.3184 15.9232 27.8751 16.2736V13.4316C27.8751 10.4727 27.2524 8.40934 26.046 7.20245C24.8007 5.99555 22.6993 5.41157 19.7028 5.41157C18.3407 5.41157 16.9397 5.5673 15.4999 5.91769C14.06 6.26807 12.659 6.69633 11.297 7.24138C10.6743 7.5139 10.2073 7.66963 9.9349 7.7475C9.66249 7.82536 9.46791 7.86429 9.31225 7.86429C8.76743 7.86429 8.49502 7.47497 8.49502 6.6574V4.74972C8.49502 4.12681 8.57285 3.65962 8.76743 3.3871C8.96201 3.11457 9.31225 2.84205 9.85707 2.56952C11.2191 1.86874 12.8536 1.28476 14.7605 0.817575C16.6673 0.311457 18.6909 0.0778643 20.8313 0.0778643C25.4623 0.0778643 28.8479 1.12903 31.0272 3.23137C33.1676 5.3337 34.2572 8.52614 34.2572 12.8087V25.4227H34.3351ZM18.5353 31.3404C19.8195 31.3404 21.1426 31.1068 22.5436 30.6396C23.9446 30.1724 25.1899 29.3159 26.2406 28.1479C26.8632 27.4082 27.3302 26.5907 27.5637 25.6563C27.7972 24.7219 27.9529 23.5929 27.9529 22.2692V20.634C26.8243 20.3615 25.6179 20.1279 24.3726 19.9722C23.1273 19.8165 21.9209 19.7386 20.7146 19.7386C18.1072 19.7386 16.2003 20.2447 14.9161 21.2959C13.6319 22.347 13.0092 23.8265 13.0092 25.7731C13.0092 27.6029 13.4762 28.9655 14.4491 29.8999C15.3831 30.8732 16.7452 31.3404 18.5353 31.3404ZM49.7846 35.545C49.0841 35.545 48.6171 35.4282 48.3058 35.1557C47.9945 34.9221 47.7221 34.3771 47.4886 33.6374L38.3434 3.54282C38.1099 2.76418 37.9932 2.25806 37.9932 1.98554C37.9932 1.36262 38.3045 1.01224 38.9271 1.01224H42.7409C43.4803 1.01224 43.9862 1.12903 44.2586 1.40156C44.5699 1.63515 44.8034 2.1802 45.0369 2.91991L51.5747 28.693L57.6456 2.91991C57.8402 2.14127 58.0737 1.63515 58.385 1.40156C58.6963 1.16796 59.2411 1.01224 59.9416 1.01224H63.0549C63.7943 1.01224 64.3002 1.12903 64.6115 1.40156C64.9228 1.63515 65.1952 2.1802 65.3509 2.91991L71.4996 29.0044L78.232 2.91991C78.4655 2.14127 78.7379 1.63515 79.0103 1.40156C79.3217 1.16796 79.8276 1.01224 80.5281 1.01224H84.1472C84.7699 1.01224 85.1201 1.32369 85.1201 1.98554C85.1201 2.1802 85.0812 2.37486 85.0423 2.60845C85.0034 2.84205 84.9255 3.1535 84.7699 3.58176L75.3912 33.6763C75.1577 34.4549 74.8853 34.9611 74.5739 35.1947C74.2626 35.4282 73.7567 35.584 73.0951 35.584H69.7484C69.009 35.584 68.5031 35.4672 68.1918 35.1947C67.8804 34.9221 67.608 34.416 67.4524 33.6374L61.4204 8.52614L55.4274 33.5984C55.2328 34.3771 54.9993 34.8832 54.688 35.1557C54.3767 35.4282 53.8319 35.545 53.1314 35.545H49.7846ZM99.7913 36.5962C97.7677 36.5962 95.7441 36.3626 93.7983 35.8954C91.8525 35.4282 90.3348 34.9221 89.323 34.3382C88.7004 33.9878 88.2723 33.5984 88.1166 33.2481C87.961 32.8977 87.8831 32.5083 87.8831 32.1579V30.1724C87.8831 29.3548 88.1945 28.9655 88.7782 28.9655C89.0117 28.9655 89.2452 29.0044 89.4787 29.0823C89.7122 29.1602 90.0624 29.3159 90.4516 29.4716C91.7747 30.0556 93.2146 30.5228 94.7323 30.8343C96.2889 31.1457 97.8066 31.3014 99.3633 31.3014C101.815 31.3014 103.722 30.8732 105.045 30.0167C106.368 29.1602 107.069 27.9143 107.069 26.3181C107.069 25.228 106.718 24.3326 106.018 23.5929C105.317 22.8532 103.994 22.1913 102.087 21.5684L96.4446 19.8165C93.6037 18.921 91.5023 17.5973 90.2181 15.8454C88.9338 14.1324 88.2723 12.2247 88.2723 10.2002C88.2723 8.56507 88.6225 7.12458 89.323 5.87875C90.0235 4.63293 90.9575 3.54282 92.1249 2.68632C93.2924 1.79088 94.6155 1.12903 96.1722 0.661846C97.7288 0.194661 99.3633 0 101.076 0C101.932 0 102.827 0.0389321 103.683 0.155729C104.578 0.272525 105.395 0.428254 106.212 0.583982C106.991 0.778643 107.73 0.973303 108.431 1.2069C109.131 1.44049 109.676 1.67408 110.065 1.90768C110.61 2.21913 110.999 2.53059 111.233 2.88098C111.466 3.19244 111.583 3.62069 111.583 4.16574V5.99555C111.583 6.81312 111.271 7.24138 110.688 7.24138C110.376 7.24138 109.871 7.08565 109.209 6.77419C106.991 5.76196 104.5 5.25584 101.737 5.25584C99.5189 5.25584 97.7677 5.60623 96.5613 6.34594C95.3549 7.08565 94.7323 8.21468 94.7323 9.8109C94.7323 10.901 95.1215 11.8354 95.8998 12.5751C96.6781 13.3148 98.118 14.0545 100.18 14.7164L105.707 16.4683C108.508 17.3637 110.532 18.6096 111.738 20.2058C112.945 21.802 113.529 23.6318 113.529 25.6563C113.529 27.3304 113.178 28.8487 112.517 30.1724C111.816 31.4961 110.882 32.6641 109.676 33.5984C108.47 34.5717 107.03 35.2725 105.356 35.7786C103.605 36.3237 101.776 36.5962 99.7913 36.5962Z" fill="#252F3E"/>
<path fill-rule="evenodd" clip-rule="evenodd" d="M107.146 55.5172C94.3432 64.9777 75.7414 69.9999 59.7471 69.9999C37.3316 69.9999 17.1343 61.7074 1.87936 47.9254C0.672969 46.8353 1.76261 45.3559 3.20249 46.2124C19.7028 55.7897 40.0557 61.5906 61.1091 61.5906C75.3134 61.5906 90.9186 58.6318 105.278 52.5583C107.419 51.585 109.248 53.9599 107.146 55.5172Z" fill="#FF9900"/>
<path fill-rule="evenodd" clip-rule="evenodd" d="M112.478 49.4438C110.843 47.3415 101.659 48.4316 97.4953 48.9377C96.25 49.0934 96.0554 48.0033 97.184 47.1857C104.5 42.0467 116.525 43.5261 117.926 45.2391C119.327 46.9911 117.537 59.0211 110.688 64.7831C109.637 65.6785 108.625 65.2113 109.092 64.0434C110.649 60.1891 114.112 51.5072 112.478 49.4438Z" fill="#FF9900"/>
</g>
<defs>
<clipPath id="clip0_7_434">
<rect width="119.404" height="70" fill="white" transform="translate(0.298218)"/>
</clipPath>
</defs>
</svg>
