<svg width="27" height="30" viewBox="0 0 27 30" fill="none" xmlns="http://www.w3.org/2000/svg">
<g clip-path="url(#clip0_14_638)">
<path d="M26.7901 8.82407C26.7899 8.321 26.6822 7.87646 26.4646 7.49493C26.2508 7.11976 25.9307 6.80532 25.5013 6.5567C21.9565 4.51325 18.4084 2.47606 14.8648 0.430539C13.9095 -0.120864 12.9832 -0.100762 12.035 0.458557C10.6241 1.29045 3.56014 5.33661 1.45519 6.55555C0.588304 7.05727 0.16648 7.82511 0.166271 8.82313C0.164917 12.9326 0.166271 17.042 0.164917 21.1516C0.165125 21.6436 0.268159 22.0795 0.476207 22.4553C0.690088 22.8418 1.01471 23.1649 1.45404 23.4192C3.5591 24.6381 10.624 28.684 12.0346 29.5161C12.9832 30.0757 13.9095 30.0957 14.8651 29.5441C18.4088 27.4985 21.9572 25.4614 25.5024 23.4179C25.9417 23.1638 26.2664 22.8405 26.4802 22.4543C26.688 22.0785 26.7912 21.6426 26.7914 21.1504C26.7914 21.1504 26.7914 12.9337 26.7901 8.82407Z" fill="#5C8DBC"/>
<path d="M13.5189 14.9474L0.476196 22.4554C0.690078 22.8419 1.0147 23.165 1.45403 23.4192C3.55909 24.6382 10.6239 28.684 12.0345 29.5161C12.9832 30.0758 13.9095 30.0958 14.8651 29.5442C18.4088 27.4985 21.9572 25.4614 25.5024 23.418C25.9417 23.1639 26.2664 22.8406 26.4802 22.4543L13.5189 14.9474Z" fill="#1A4674"/>
<path d="M9.65576 17.1713C10.4147 18.496 11.8415 19.3894 13.4781 19.3894C15.1249 19.3894 16.5598 18.4846 17.3149 17.1458L13.5189 14.9474L9.65576 17.1713Z" fill="#1A4674"/>
<path d="M26.7901 8.82413C26.7899 8.32106 26.6823 7.87652 26.4646 7.495L13.5189 14.9474L26.4803 22.4543C26.688 22.0785 26.7912 21.6426 26.7914 21.1505C26.7914 21.1505 26.7914 12.9337 26.7901 8.82413Z" fill="#1B598E"/>
<path d="M26.0773 15.484H25.0645V16.4968H24.0514V15.484H23.0387V14.4715H24.0514V13.4589H25.0645V14.4715H26.0773V15.484ZM22.3815 15.484H21.3688V16.4968H20.356V15.484H19.3431V14.4715H20.356V13.4589H21.3688V14.4715H22.3815V15.484Z" fill="#EEF2F6"/>
<path d="M17.3149 17.1458C16.5598 18.4846 15.1249 19.3894 13.4781 19.3894C11.8415 19.3894 10.4147 18.496 9.65577 17.1713C9.27451 16.5066 9.07428 15.7536 9.07507 14.9874C9.07507 12.5563 11.0465 10.5854 13.4781 10.5854C15.1043 10.5854 16.5235 11.4677 17.2862 12.7788L21.1347 10.5632C19.6051 7.92329 16.7492 6.14722 13.4781 6.14722C8.5946 6.14722 4.63586 10.1052 4.63586 14.9874C4.63586 16.5891 5.06206 18.0911 5.80695 19.3867C7.33277 22.0406 10.1968 23.8276 13.4781 23.8276C16.7655 23.8276 19.634 22.0334 21.1576 19.3717L17.3149 17.1458Z" fill="#EEF2F6"/>
</g>
<defs>
<clipPath id="clip0_14_638">
<rect width="26.6701" height="30" fill="white" transform="translate(0.164917)"/>
</clipPath>
</defs>
</svg>
