<svg width="202" height="70" viewBox="0 0 202 70" fill="none" xmlns="http://www.w3.org/2000/svg">
<path d="M34.0866 4.375H43.6768V48.7546C38.7574 49.6884 35.1452 50.0623 31.2217 50.0623C19.5136 50.0615 13.4106 44.7703 13.4106 34.6217C13.4106 24.847 19.8876 18.4971 29.9136 18.4971C31.4704 18.4971 32.6536 18.6212 34.0866 18.9947V4.375ZM34.0866 26.7142C32.9657 26.3411 32.0317 26.2166 30.8481 26.2166C25.9906 26.2166 23.188 29.2052 23.188 34.4345C23.188 39.5402 25.866 42.3416 30.7858 42.3416C31.8445 42.3416 32.7167 42.2798 34.0866 42.093V26.7142Z" fill="#092E20"/>
<path d="M58.9283 19.18V41.406C58.9283 49.064 58.3675 52.7374 56.6866 55.9124C55.1294 58.9636 53.074 60.8931 48.8396 63.0106L39.934 58.7769C44.1689 56.7844 46.2238 55.0416 47.5315 52.3635C48.9019 49.6247 49.3382 46.449 49.3382 38.1065V19.18H58.9283ZM49.3382 4.42456H58.9283V14.2615H49.3382V4.42456ZM64.7212 21.3589C68.9564 19.3672 73.004 18.4956 77.4257 18.4956C82.3455 18.4956 85.5836 19.8026 87.0162 22.3554C87.8254 23.7872 88.0744 25.6548 88.0744 29.6399V49.1263C83.7769 49.7488 78.3593 50.185 74.374 50.185C66.3406 50.185 62.7281 47.3824 62.7281 41.1569C62.7281 34.4323 67.5234 31.3196 79.2934 30.3231V28.2065C79.2934 26.4633 78.4216 25.8412 75.9926 25.8412C72.4432 25.8412 68.4574 26.8373 64.7204 28.7676L64.7212 21.3589ZM79.7301 36.6124C73.3776 37.2349 71.3223 38.231 71.3223 40.7216C71.3223 42.5888 72.5059 43.4604 75.1212 43.4604C76.5539 43.4604 77.8612 43.3362 79.7297 43.025L79.7301 36.6124ZM92.7456 20.6741C98.4123 19.18 103.083 18.4956 107.816 18.4956C112.736 18.4956 116.286 19.6158 118.404 21.7951C120.396 23.8491 121.019 26.0902 121.019 30.885V49.6866H111.428V31.2585C111.428 27.5855 110.183 26.2151 106.758 26.2151C105.45 26.2151 104.267 26.3396 102.336 26.8999V49.6866H92.7456V20.6741ZM124.747 54.9163C128.11 56.6598 131.473 57.4683 135.022 57.4683C141.311 57.4683 143.99 54.9163 143.99 48.8146V48.6278C142.122 49.5613 140.253 49.9352 137.762 49.9352C129.355 49.9352 123.998 44.3942 123.998 35.6163C123.998 24.7202 131.908 18.5571 145.92 18.5571C150.03 18.5571 153.829 18.9924 158.437 19.9263L155.153 26.8421C152.6 26.3441 154.949 26.7754 153.019 26.5887V27.5851L153.143 31.6312L153.205 36.8614C153.268 38.1683 153.268 39.4761 153.33 40.7834V43.3989C153.33 51.6169 152.645 55.4766 150.591 58.652C147.601 63.3218 142.432 65.6249 135.084 65.6249C131.347 65.6249 128.11 65.0646 124.746 63.7572L124.747 54.9163ZM143.804 26.2774H142.808C140.94 26.2151 138.76 26.7128 137.265 27.6466C134.961 28.9543 133.777 31.3204 133.777 34.6821C133.777 39.4765 136.145 42.2157 140.379 42.2157C141.687 42.2157 142.746 41.9662 143.99 41.5931V38.2937C143.99 37.1727 143.929 35.9268 143.929 34.6203L143.867 30.2002L143.804 27.0248L143.804 26.2774ZM173.326 18.3707C182.917 18.3707 188.771 24.4102 188.771 34.1845C188.771 44.2086 182.668 50.4967 172.953 50.4967C163.362 50.4967 157.445 44.4572 157.445 34.7452C157.446 24.6584 163.549 18.3707 173.326 18.3707ZM173.139 42.776C176.813 42.776 178.993 39.7251 178.993 34.4331C178.993 29.2037 176.876 26.0906 173.202 26.0906C169.403 26.0906 167.222 29.1419 167.222 34.4331C167.223 39.7255 169.403 42.776 173.139 42.776Z" fill="#092E20"/>
</svg>
