<svg width="35" height="30" viewBox="0 0 35 30" fill="none" xmlns="http://www.w3.org/2000/svg">
<g clip-path="url(#clip0_14_621)">
<path d="M8.07267 20.8696C7.11599 20.8696 6.24628 20.087 6.24628 19.1305C6.24628 18.174 7.02902 17.3914 8.07267 17.3914C9.11632 17.3914 9.89906 18.174 9.89906 19.1305C9.89906 20.087 9.02935 20.8696 8.07267 20.8696ZM30.5112 11.3914C30.3372 10.0001 29.4675 8.86962 28.3369 8.00005L27.902 7.65223L27.5542 8.08701C26.8584 8.86962 26.5975 10.2609 26.6844 11.3044C26.7714 12.087 27.0323 12.8696 27.4672 13.4783C27.1193 13.6522 26.6844 13.8261 26.3366 14C25.5538 14.2609 24.7711 14.3479 23.9883 14.3479H1.46288L1.37591 14.8696C1.20197 16.5218 1.46288 18.2609 2.15865 19.8261L2.50653 20.4348V20.5218C4.59384 24 8.33358 25.5653 12.4212 25.5653C20.2486 25.5653 26.6844 22.174 29.7284 14.8696C31.7288 14.9566 33.7291 14.4348 34.6858 12.5218L34.9467 12.087L34.5118 11.8261C33.3812 11.1305 31.8157 11.0435 30.5112 11.3914ZM19.2919 10.0001H15.9001V13.3914H19.2919V10.0001ZM19.2919 5.73918H15.9001V9.13049H19.2919V5.73918ZM19.2919 1.39136H15.9001V4.78266H19.2919V1.39136ZM23.4665 10.0001H20.0747V13.3914H23.4665V10.0001ZM10.8557 10.0001H7.46388V13.3914H10.8557V10.0001ZM15.1173 10.0001H11.7254V13.3914H15.1173V10.0001ZM6.68114 10.0001H3.28927V13.3914H6.68114V10.0001ZM15.1173 5.73918H11.7254V9.13049H15.1173V5.73918ZM10.8557 5.73918H7.46388V9.13049H10.8557V5.73918Z" fill="#061D2F"/>
<mask id="mask0_14_621" style="mask-type:luminance" maskUnits="userSpaceOnUse" x="1" y="1" width="34" height="25">
<path d="M8.07267 20.8696C7.11599 20.8696 6.24628 20.087 6.24628 19.1305C6.24628 18.174 7.02902 17.3914 8.07267 17.3914C9.11632 17.3914 9.89906 18.174 9.89906 19.1305C9.89906 20.087 9.02935 20.8696 8.07267 20.8696ZM30.5112 11.3914C30.3372 10.0001 29.4675 8.86962 28.3369 8.00005L27.902 7.65223L27.5542 8.08701C26.8584 8.86962 26.5975 10.2609 26.6844 11.3044C26.7714 12.087 27.0323 12.8696 27.4672 13.4783C27.1193 13.6522 26.6844 13.8261 26.3366 14C25.5538 14.2609 24.7711 14.3479 23.9883 14.3479H1.46288L1.37591 14.8696C1.20197 16.5218 1.46288 18.2609 2.15865 19.8261L2.50653 20.4348V20.5218C4.59384 24 8.33358 25.5653 12.4212 25.5653C20.2486 25.5653 26.6844 22.174 29.7284 14.8696C31.7288 14.9566 33.7291 14.4348 34.6858 12.5218L34.9467 12.087L34.5118 11.8261C33.3812 11.1305 31.8157 11.0435 30.5112 11.3914ZM19.2919 10.0001H15.9001V13.3914H19.2919V10.0001ZM19.2919 5.73918H15.9001V9.13049H19.2919V5.73918ZM19.2919 1.39136H15.9001V4.78266H19.2919V1.39136ZM23.4665 10.0001H20.0747V13.3914H23.4665V10.0001ZM10.8557 10.0001H7.46388V13.3914H10.8557V10.0001ZM15.1173 10.0001H11.7254V13.3914H15.1173V10.0001ZM6.68114 10.0001H3.28927V13.3914H6.68114V10.0001ZM15.1173 5.73918H11.7254V9.13049H15.1173V5.73918ZM10.8557 5.73918H7.46388V9.13049H10.8557V5.73918Z" fill="white"/>
</mask>
<g mask="url(#mask0_14_621)">
<path d="M-41.9355 -18.2609H1066.77V113.391H-41.9355V-18.2609Z" fill="#061D2F"/>
</g>
</g>
<defs>
<clipPath id="clip0_14_621">
<rect width="34" height="30" fill="white" transform="translate(0.5)"/>
</clipPath>
</defs>
</svg>
