<svg width="56" height="70" viewBox="0 0 56 70" fill="none" xmlns="http://www.w3.org/2000/svg">
<g clip-path="url(#clip0_7_310)">
<path d="M17.052 43.26C14.9793 41.6283 12.7678 40.0648 11.257 37.8615C8.07658 33.9761 5.62849 29.4787 3.95483 24.7517C2.94293 21.6777 2.59642 18.3822 1.29117 15.4276C-0.0723331 13.2809 1.52607 10.9359 3.87553 10.2539C4.9208 10.0522 6.75985 9.06467 4.53985 9.77137C2.54923 11.232 2.35748 8.44391 4.39827 8.26734C5.79111 8.08248 6.30386 6.94201 5.82704 5.91535C4.33131 4.9389 9.45263 3.86757 6.87549 2.41098C4.1927 -0.486465 10.6297 -1.04425 9.04128 2.24696C8.66161 4.77743 13.5408 1.78213 12.4077 4.70489C13.5589 6.10873 16.7172 5.02506 16.6379 6.99328C18.3143 7.10858 18.8898 8.51922 20.4618 8.62771C22.0938 9.36505 25.0494 9.94496 25.6038 11.7841C23.986 13.0654 20.241 9.137 20.0601 12.6843C20.5494 17.9257 20.4246 23.3247 22.3402 28.3156C23.2462 31.3373 25.4439 33.7159 27.4275 36.0698C29.3265 38.3746 31.8981 39.9982 34.5199 41.3641C36.819 42.4491 39.2977 43.1681 41.804 43.6204C42.8202 42.8426 44.6146 39.9507 46.1992 41.1693C46.2757 42.5412 43.0538 44.035 46.048 43.8833C47.8078 43.3519 49.0269 45.2436 50.4753 43.5368C51.8099 45.1187 56.0215 42.5269 55.0724 45.7599C53.7879 46.5891 51.9155 46.0881 50.6298 47.229C48.5099 46.169 46.822 48.1763 44.4743 47.9232C41.868 48.3903 39.2154 48.5784 36.5732 48.5822C32.2374 48.2399 27.8102 48.0955 23.6856 46.5846C21.3615 45.909 19.0943 44.5845 17.052 43.26ZM20.7135 44.8487C22.9822 45.8294 25.2009 46.8644 27.6877 47.1773C31.6328 47.7255 35.707 48.5712 39.6659 47.8006C37.8742 46.9912 36.0212 48.115 34.2363 47.222C32.0956 47.6823 29.798 47.1037 27.6208 46.8184C25.1463 45.7156 22.475 44.9574 20.1576 43.5242C17.2606 42.4659 21.6548 44.8821 22.4374 45.0785C24.2473 46.106 20.4465 44.5509 19.9098 44.1239C18.3936 43.2726 18.2006 43.4506 19.7601 44.3145C20.0741 44.4983 20.3842 44.6917 20.7135 44.8487ZM16.396 41.7953C18.5952 42.6105 16.3862 40.2483 15.3798 40.3849C14.9334 39.6099 13.6743 39.1202 14.5625 38.7043C12.9653 39.2596 12.8888 36.594 12.1384 36.9754C10.4479 36.4412 11.4807 34.5492 9.46644 33.3866C9.28277 32.1621 7.46605 31.1008 6.88782 29.2547C6.63209 28.3088 4.8347 25.595 5.93843 28.1208C6.87804 30.5523 8.53087 32.6365 9.90713 34.7162C10.9747 36.6967 12.237 38.7683 14.1817 40.0037C14.838 40.6338 15.4704 41.5977 16.396 41.7953ZM10.063 34.8357C10.1391 34.5032 10.4647 35.5548 10.063 34.8357V34.8357ZM19.0303 42.7718C18.3296 42.4965 19.5167 42.5535 19.0303 42.7718V42.7718ZM20.2229 43.2075C19.678 43.544 20.0994 42.6063 20.2229 43.2075V43.2075ZM21.7173 43.8308C20.6204 43.4032 22.4276 43.1528 21.7173 43.8308V43.8308ZM24.2779 45.2589C22.8946 45.0185 24.7101 44.6205 24.2779 45.2589V45.2589ZM19.3613 41.829C17.9336 41.819 20.4646 41.1137 19.3613 41.829V41.829ZM20.4816 42.388C20.0826 42.5576 20.4495 42.0108 20.4816 42.388V42.388ZM26.0821 45.8864C26.9828 46.4555 31.3409 47.1329 28.6122 46.12C28.1546 46.2162 23.5521 44.8166 26.0821 45.8864ZM17.1913 38.9562C15.7925 38.5375 17.1037 38.5782 17.1913 38.9562V38.9562ZM19.7975 40.4783C18.3894 40.1124 20.4771 40.0039 19.7975 40.4783V40.4783ZM21.9909 41.8234C20.4121 41.4548 22.9654 41.4562 21.9909 41.8234V41.8234ZM16.1292 37.8002C17.1857 38.6109 20.3915 37.9044 17.7472 37.3162C16.5448 36.6748 13.8342 36.2355 15.6819 37.703L16.1292 37.8002ZM23.4773 42.2878C21.631 41.8592 23.9178 41.5379 23.4773 42.2878V42.2878ZM21.2446 40.5126C23.8274 41.2431 19.072 38.8766 20.6068 40.2428L20.9476 40.3973L21.2446 40.5126ZM25.7211 43.1015C23.5107 42.7637 28.1675 43.1249 25.7211 43.1015V43.1015ZM15.1883 36.3838C14.585 36.4217 15.0922 35.9277 15.1883 36.3838V36.3838ZM29.8592 45.4246C29.0612 46.0381 29.9245 44.6013 29.8592 45.4246V45.4246ZM19.3641 38.9422C18.5996 38.9241 19.2153 38.5082 19.3641 38.9422V38.9422ZM15.4202 36.0975C13.4964 35.4784 16.8246 36.0128 15.4202 36.0975V36.0975ZM10.7481 33.0758C9.22049 31.8645 10.5731 32.4014 10.7481 33.0758V33.0758ZM23.013 40.8648C22.7558 40.5711 22.8919 40.9287 23.013 40.8648V40.8648ZM30.6458 45.5529C30.2302 45.7222 30.6224 45.1034 30.6458 45.5529V45.5529ZM22.3375 40.1664C21.1393 39.9909 22.4752 39.5878 22.3375 40.1664V40.1664ZM16.6504 36.5593C14.9753 35.8526 17.6959 36.4478 16.6504 36.5593V36.5593ZM26.2702 42.5412C24.6827 42.2266 27.8992 41.8955 26.2702 42.5412V42.5412ZM21.2671 39.1428C23.1436 39.3844 19.0333 37.8642 20.8543 39.0062L21.2671 39.1428ZM27.7891 43.1558C29.5423 42.1085 28.9641 45.6112 30.7629 43.4521C32.5365 42.1557 29.2309 45.0546 31.4162 43.6832C32.998 42.6244 35.3332 44.1852 36.8083 44.693C37.8687 44.6415 38.9004 45.6112 39.9886 45.021C42.0821 44.4562 35.8936 44.1839 37.5156 43.1834C35.6002 43.7417 34.1853 42.5186 33.2427 41.2903C31.0935 40.7936 28.6095 39.6948 27.5364 37.7904C27.0984 37.0769 28.1677 37.8921 27.1584 36.7235C25.8642 35.5716 25.2179 34.2624 24.3489 32.8618C23.3104 32.308 23.1882 30.6764 23.0838 32.8077C23.0923 31.4624 21.83 30.5568 21.5213 30.9325C21.5158 29.6371 22.8727 30.2868 21.9231 29.3285C21.719 27.9859 21.046 26.5868 20.8443 25.0704C20.5305 24.3401 20.7996 22.7752 19.7714 24.429C19.3972 26.1777 19.6476 22.2812 20.2301 23.5653C20.9946 22.2548 19.9546 22.4091 19.913 22.5901C20.4108 21.4843 20.2286 19.915 19.7824 20.5132C20.0479 19.3404 20.2023 16.1981 19.3864 16.7559C19.8811 15.529 20.3247 11.1439 18.1753 12.8165C17.3052 12.8288 15.7971 13.1324 15.0854 13.487C17.3192 14.7196 14.8601 13.932 13.9496 13.7359C13.8314 14.8766 12.9307 14.3841 11.8046 14.3952C13.6035 14.6177 10.9288 16.2353 9.89905 15.6069C8.55893 16.2468 11.0542 17.8466 9.92541 18.3416C10.0647 19.0859 7.87357 18.0721 8.0447 19.7941C6.74475 19.2457 7.86676 21.8362 8.51727 20.9599C10.729 21.5594 10.0742 22.9241 10.1297 24.2218C9.76959 24.977 8.35039 22.4454 9.81402 22.5625C8.65884 20.6855 8.53682 21.8834 7.57744 22.7556C7.35508 22.8184 10.024 23.9963 8.34911 24.5779C9.82252 24.8062 9.86567 26.097 10.1661 26.9137C11.0515 27.837 10.8691 25.8937 11.9301 27.0041C11.2583 26.0149 8.37675 24.2173 10.6971 24.7938C10.6843 23.7991 10.277 22.9962 10.9887 23.0156C11.6937 21.74 10.2507 26.1623 11.8382 24.5405C12.2772 24.3486 12.3873 23.2634 13.1769 24.6434C14.3235 25.773 13.5912 26.5906 11.973 25.5558C12.2621 26.5393 14.1373 26.8897 13.7842 28.4271C14.1579 29.7793 14.6809 29.281 15.1367 29.2032C15.4938 30.5164 15.6972 29.551 15.7138 28.9249C17.3498 29.2759 16.9661 30.2439 17.4789 30.9199C18.6062 31.4288 15.8652 27.4685 17.8003 29.7291C19.8364 31.5694 18.5648 32.3372 16.737 32.0425C17.8934 31.9489 18.2656 33.6076 19.7131 33.5491C21.0322 34.1778 21.9261 36.5899 19.6519 35.5854C18.8636 34.8732 16.0707 33.9954 18.3522 35.3491C20.4567 36.3255 22.1304 36.9084 24.1612 38.1342C25.614 39.1719 26.2419 40.3609 26.7925 40.5964C25.5708 41.1803 23.1119 40.1303 24.9382 39.809C23.7983 39.6016 22.5169 39.0245 23.6078 40.4447C24.5364 41.221 26.8954 41.1386 27.3195 41.2263C26.9609 42.0166 26.3453 42.0793 27.3333 42.1404C26.2309 42.7288 27.6877 42.8207 27.7891 43.1558ZM25.5345 36.7833C24.8631 36.0809 24.6895 34.7664 25.415 35.9094C25.7877 36.0598 26.6065 38.0591 25.5345 36.7833ZM32.8786 41.4518C32.8909 41.77 33.2969 41.4241 32.8786 41.4518V41.4518ZM24.4756 35.0612C24.4488 33.9997 24.7171 35.8803 24.4756 35.0612V35.0612ZM23.7456 34.079C22.9006 32.4474 24.8089 34.5409 23.7456 34.079V34.079ZM14.899 27.9695C15.1437 28.8177 15.3954 27.837 14.899 27.9695V27.9695ZM21.9399 31.7879C22.2443 30.643 22.2973 32.748 21.9399 31.7879V31.7879ZM16.9661 28.3267C16.616 27.6953 17.6989 28.9196 16.9661 28.3267V28.3267ZM21.2337 29.6957C20.4344 27.904 21.8009 28.7162 21.4117 29.9892L21.2337 29.6957ZM13.8733 24.7836C13.5161 24.1954 12.9252 22.4703 13.1156 21.9434C13.2865 22.8016 14.9381 25.6352 13.9245 23.1175C12.8057 21.0072 15.2634 23.8016 15.5163 24.329C15.6345 24.8521 14.8254 24.1858 15.373 25.4139C14.3737 24.0159 14.7836 26.1862 13.8733 24.7836ZM11.5991 23.2147C11.6922 21.8472 12.119 24.1522 11.5991 23.2147V23.2147ZM12.6222 23.5678C13.1101 22.5361 13.4492 25.0063 12.6222 23.5678V23.5678ZM10.1603 21.6624C9.3136 20.8191 8.70051 20.043 10.2005 21.139C10.7774 21.1614 8.91628 19.374 10.3397 20.5715C11.8352 20.8444 11.0776 23.0271 10.1603 21.6624ZM11.453 21.629C11.7145 22.1089 11.9454 21.1407 11.453 21.629V21.629ZM12.2496 21.8834C11.503 20.4853 13.1545 22.4706 12.2496 21.8834V21.8834ZM10.6677 20.3715C8.20605 18.1774 13.7606 21.5175 11.0695 20.7774L10.6677 20.3715ZM17.7223 24.4722C16.6562 23.8335 17.4387 19.9722 17.8031 22.6124C18.8388 22.277 17.7457 23.9771 18.5173 23.9603C18.3966 25.0325 18.0505 25.4184 17.7223 24.4722ZM20.3315 26.0162C20.4357 24.8521 20.5511 26.8122 20.3315 26.0162V26.0162ZM19.8785 25.5669C19.8896 26.1526 19.9952 25.0704 19.8785 25.5669V25.5669ZM11.1499 19.6508C9.56827 17.4666 15.747 21.8596 12.1635 20.2045C11.7893 20.1058 11.3378 20.0709 11.1499 19.6508ZM16.1751 22.3163C16.0252 20.4772 16.5089 22.6205 16.1751 22.3163V22.3163ZM19.9895 24.7655C20.012 25.4586 20.2841 23.7182 19.9895 24.7655V24.7655ZM11.3933 18.8175C12.3331 18.6158 15.2882 20.4687 12.5748 19.3461C12.2734 19.0121 11.6297 19.164 11.3933 18.8175ZM19.4653 22.8433C19.5658 20.9627 20.0273 21.7207 19.4695 23.1132L19.4653 22.8433ZM12.0925 18.1625C12.476 17.6002 11.0746 15.6209 12.2938 17.4528C12.821 17.8714 13.8186 18.154 12.9375 18.3305C14.3233 19.5535 12.5999 18.6618 12.0925 18.1625ZM19.0662 22.2563C19.3001 23.511 19.3307 20.1141 19.0662 22.2563V22.2563ZM11.2917 16.1843C11.4473 16.5748 11.585 16.0587 11.2917 16.1843V16.1843ZM13.1114 17.2679C13.5795 16.2842 13.9745 18.3639 13.1114 17.2679V17.2679ZM18.2421 20.1237C18.2378 19.7467 18.3392 20.6732 18.2421 20.1237V20.1237ZM17.9444 19.4659C17.2327 17.7074 18.6077 20.3964 17.9444 19.4659V19.4659ZM17.5078 18.3124C17.3887 17.5862 17.9138 19.2251 17.5078 18.3124V18.3124ZM18.2195 17.1552C17.7304 16.2938 18.8371 13.3574 18.9608 15.1784C18.4449 16.5974 18.812 17.3905 19.1704 15.4873C19.8351 13.9905 19.0273 18.4435 18.2195 17.1552ZM18.9508 12.7886C18.9982 13.1041 19.1638 12.5269 18.9508 12.7886V12.7886ZM17.7293 36.8722C17.44 36.6191 17.7665 37.0324 17.7293 36.8722V36.8722ZM20.2452 38.1452C21.6449 38.5056 21.6381 37.928 20.3728 37.7555C19.6931 37.1228 17.5454 36.4508 19.468 37.6777C19.5947 38.0006 19.9965 37.9921 20.2452 38.1452ZM15.2772 34.8425C16.0471 35.4188 18.1808 36.4729 16.3752 35.0627C16.984 34.3543 15.2102 33.9776 15.7984 33.5034C14.3012 32.5863 14.6165 32.6684 15.6664 32.6978C13.8675 31.8921 15.9262 31.9534 15.829 31.5405C15.1354 31.4039 12.3829 30.316 14.0023 31.6294C12.3565 30.7904 13.6101 31.9423 13.1127 31.8213C11.429 31.3622 14.6114 33.1041 12.8457 32.6714C13.8106 33.4364 15.4438 34.6328 13.253 33.4808C12.9653 33.8967 14.8214 34.5271 15.2772 34.8425ZM17.9083 36.3562C16.3388 35.0944 21.107 37.3871 17.9083 36.3562V36.3562ZM31.3784 44.5217C30.9417 45.0642 31.42 43.8861 31.3784 44.5217V44.5217ZM32.7629 45.1046C33.501 44.3899 32.7935 46.2453 33.9861 44.9296C33.9984 43.9876 33.95 43.4315 32.6156 44.576C32.247 44.7806 32.0833 45.6469 32.7629 45.1046ZM10.7857 31.2931C9.19668 30.4051 10.5589 30.4013 10.7857 31.2931V31.2931ZM12.2632 32.2623C10.3044 31.4375 11.7141 31.3514 12.2632 32.2623V32.2623ZM20.6746 37.3383C21.4965 38.0689 24.4461 37.874 21.6716 37.429C21.2614 36.821 19.0637 36.9671 20.6746 37.3383ZM32.2359 44.4847C31.0114 44.9576 33.4995 43.4232 32.2359 44.4847V44.4847ZM34.8647 46.2915C34.3199 46.4404 34.8728 45.9507 34.8647 46.2915V46.2915ZM34.869 45.8143C33.5135 45.902 36.2686 44.3316 34.869 45.8143V45.8143ZM7.14909 28.2463C5.9565 26.5436 6.40824 25.7784 5.25732 24.3873C5.03878 23.3232 3.28349 20.911 4.34959 23.4664C5.32534 24.9619 5.61424 27.2764 7.14909 28.2463ZM34.4296 45.3427C33.3732 44.6179 37.0056 43.6774 34.4296 45.3427V45.3427ZM36.3953 46.1132C35.5792 45.8822 37.6853 45.0057 36.3953 46.1132V46.1132ZM10.3476 29.4104C9.39417 29.3395 10.7162 28.8609 10.3476 29.4104V29.4104ZM35.985 45.5873C37.2333 44.7821 35.6974 44.9057 35.7586 45.6609L35.985 45.5873ZM19.0426 34.9011C18.3826 34.947 18.9997 34.3558 19.0426 34.9011V34.9011ZM20.0894 35.5035C19.5779 35.6092 19.7559 34.8302 20.0894 35.5035V35.5035ZM37.9882 46.1315C39.5881 44.9766 37.0194 45.9101 37.6532 46.3513L37.9882 46.1315ZM37.3753 45.8352C36.0003 46.3191 38.6791 44.743 37.3753 45.8352V45.8352ZM40.5054 47.9202C39.4422 47.7311 41.3801 47.3345 40.5054 47.9202V47.9202ZM11.1499 29.014C12.3216 29.2768 15.8356 31.9032 13.7632 29.1964C12.7013 28.8819 13.338 26.2847 12.2551 26.7437C12.9821 27.9595 12.8525 28.4754 11.3261 27.7106C9.40947 26.7729 10.249 28.174 10.6246 28.5607C10.1127 28.6775 11.3 29.0045 11.1497 29.0138L11.1499 29.014ZM5.80769 24.7923C6.01751 23.9227 3.87404 20.0124 4.7958 22.8322C5.12785 23.4234 5.09342 24.543 5.80769 24.7923ZM15.6133 30.8419C15.0087 30.337 15.5841 30.7695 15.6133 30.8419V30.8419ZM17.0992 31.1886C15.4564 30.8142 17.0992 30.2675 17.0992 31.1886V31.1886ZM29.9855 39.3166C29.014 39.3025 29.7396 38.6875 29.9855 39.3166V39.3166ZM30.6041 39.7684C30.2466 39.8367 30.5121 39.4165 30.6041 39.7684V39.7684ZM35.7112 42.9888C35.0981 42.9418 36.2021 42.6259 35.7112 42.9888V42.9888ZM8.47539 25.4739C6.96967 25.0857 9.88056 24.9298 8.47539 25.4739V25.4739ZM28.851 38.3188C27.9545 38.5458 28.8346 37.4092 28.851 38.3188V38.3188ZM7.92055 24.1786C7.0851 23.9786 8.82275 23.8744 7.92055 24.1786V24.1786ZM10.5396 25.4486C10.263 25.5629 10.524 25.1497 10.5396 25.4486V25.4486ZM42.4907 45.0559C43.6514 44.8209 46.2967 45.6473 46.7234 44.7487C45.314 44.7138 41.8485 43.7525 41.6843 44.9766L41.993 45.0255L42.4909 45.0559H42.4907ZM11.372 25.6588C10.6535 25.6241 11.3933 24.7364 11.372 25.6588V25.6588ZM4.48607 20.8776C3.29603 20.6117 4.17336 19.1204 4.48607 20.8776V20.8776ZM6.12763 21.2907C4.62467 20.7829 6.14867 20.7259 6.12763 21.2907V21.2907ZM7.06597 21.7526C6.79492 21.5326 6.85466 22.0291 7.06597 21.7526V21.7526ZM12.9724 25.5433C12.3136 25.3542 13.2506 25.2872 12.9724 25.5433V25.5433ZM6.44183 20.7121C4.53879 20.5132 6.28218 19.3851 6.44183 20.7121V20.7121ZM3.07346 18.5252C2.74523 18.756 3.02605 17.9131 3.07346 18.5252V18.5252ZM3.57515 18.1472C3.14425 18.2386 3.49331 17.4207 3.57515 18.1472V18.1472ZM6.34191 19.7995C7.51239 19.3404 4.21056 18.8479 6.10276 19.7133L6.34191 19.7995ZM43.3793 42.6939C42.4284 42.4812 44.1284 42.0068 43.3793 42.6939V42.6939ZM47.8539 45.0142C47.0975 45.1312 48.1543 44.1269 47.8539 45.0142V45.0142ZM6.62465 18.3486C5.6963 18.5196 6.74858 17.4892 6.62465 18.3486V18.3486ZM2.68698 15.7086C2.47568 14.4956 2.5048 12.3657 4.52752 13.0849C1.82773 13.6219 6.39718 16.444 5.82023 14.2156C6.95585 14.2716 8.04172 13.544 7.44521 14.6468C9.68328 14.4007 11.2334 12.4588 13.3948 12.7316C15.078 12.5078 16.9185 12.3393 18.7327 11.6605C20.2242 11.5532 21.66 9.94645 20.843 8.99362C18.8092 8.8213 16.6794 9.07573 14.4317 9.52375C11.9409 10.0411 9.67797 11.0259 7.16439 11.449C4.71353 11.7787 7.65652 12.3559 6.95436 12.4852C5.67674 12.929 8.47943 13.2281 6.78897 13.6967C5.74519 13.4981 4.65805 13.1392 5.10426 12.0374C2.75777 12.3433 0.694876 13.317 2.54944 15.7069L2.6872 15.7082L2.68698 15.7086ZM8.34337 12.826C8.89247 10.798 11.2902 14.4956 9.24408 13.096C9.00068 12.9122 8.59741 12.7633 8.34337 12.826ZM8.45009 11.8423C8.87143 12.1751 9.24408 11.2514 8.45009 11.8423V11.8423ZM9.45794 11.8594C9.53065 10.9259 11.7672 12.3531 9.82656 12.1946L9.45794 11.8594ZM10.837 11.3043C10.9832 11.8272 11.3416 10.7142 10.837 11.3043V11.3043ZM11.1903 11.068C12.0298 10.0594 15.94 10.4236 13.0778 10.9689C12.3104 10.3902 11.7226 11.3097 11.1903 11.068ZM16.2944 10.2804C16.1681 7.52447 18.8313 11.2584 16.2944 10.2804V10.2804ZM17.7431 10.2719C18.2725 8.88385 19.7988 9.71436 17.9891 9.9924C18.0278 10.1413 17.9349 10.7104 17.7431 10.2719ZM6.05386 17.6364C4.37446 16.795 7.63547 16.6667 6.05386 17.6364V17.6364ZM7.22413 17.9606C6.01751 17.7213 7.77897 17.3709 7.22413 17.9606V17.9606ZM3.77689 15.5137C2.70654 15.2495 4.68037 14.8181 3.77689 15.5137V15.5137ZM50.4948 44.7611C49.8039 45.124 50.5212 43.9542 50.4948 44.7611V44.7611ZM45.7476 41.5184C45.1375 41.5992 45.8824 40.5908 45.7476 41.5184V41.5184ZM51.8001 45.0742C53.0639 45.0785 55.6295 44.6802 52.88 44.6817C52.4478 44.7487 50.3656 44.7349 51.8001 45.0742ZM8.25303 17.3913C9.27618 17.3217 9.85292 16.263 8.05405 16.323C5.2671 16.0351 10.513 17.2788 7.69691 16.9227C7.31894 17.173 8.23049 17.4609 8.25303 17.3913ZM9.15374 17.8478C8.83656 18.1967 9.0466 17.1911 9.15374 17.8478V17.8478ZM10.2226 14.9959C9.60824 14.8485 10.666 14.4449 10.2226 14.9959V14.9959ZM6.81958 9.30527C8.6463 8.68494 11.1429 7.98653 12.0049 9.61161C11.1276 8.55581 11.6505 7.51511 12.4789 9.06063C13.6507 10.6229 14.237 8.34988 13.4753 7.82528C14.3444 8.90469 15.3312 9.41547 14.0563 7.89378C15.4423 6.22573 11.2832 8.11205 10.338 8.09247C9.88353 8.2967 5.64209 9.17465 6.81958 9.30527ZM7.88994 7.25515C8.93138 6.46931 11.4917 7.72381 9.84867 6.47314C9.68753 6.33146 6.25135 7.42194 7.88994 7.25515ZM11.6864 7.41215C12.9041 7.44278 11.1612 5.77346 12.6122 6.53015C12.3746 5.75133 10.922 5.60518 10.2118 5.29374C9.80998 6.00598 11.0287 7.42194 11.6864 7.41215ZM8.55574 3.96351C7.81638 4.25432 8.97708 3.3919 8.55574 3.96351V3.96351ZM10.1076 4.33473C12.0714 4.07477 9.60675 3.48911 9.71091 4.3141L10.1076 4.33473ZM7.2101 2.06741C5.82682 0.260445 9.81104 2.37077 8.40545 0.47871C7.22264 -0.462852 6.08703 1.54026 7.2101 2.06741ZM24.9543 11.6313C25.5887 10.507 22.337 10.1149 24.5277 11.2331C24.7292 11.3001 24.6837 11.709 24.9543 11.6313ZM12.0791 53.5019C11.9388 54.0563 11.8518 54.9866 11.8193 56.2923C11.8193 56.5489 11.7039 56.6774 11.4724 56.6774C11.2409 56.6774 11.0797 56.5653 10.9885 56.3421C10.7407 55.7384 10.506 55.3174 10.2819 55.077C10.0179 54.7962 9.6667 54.6264 9.22857 54.5686C8.7577 54.4941 7.58467 54.4569 5.70927 54.4569C5.27985 54.4569 4.9986 54.5026 4.8668 54.5939C4.78411 54.6513 4.74287 54.7755 4.74287 54.9659V60.584C4.74287 60.7742 4.86255 60.8649 5.10171 60.857C5.83745 60.8485 6.90313 60.7983 8.29894 60.7081C8.5719 60.6745 8.756 60.5857 8.85081 60.4409C8.94647 60.2962 9.03937 59.9227 9.12971 59.3187C9.18711 58.9879 9.38184 58.8596 9.71219 58.9345C9.9928 58.9924 10.1135 59.1206 10.0721 59.3187C9.84038 60.4436 9.76555 61.907 9.84824 63.7095C9.85696 63.924 9.72069 64.0401 9.43945 64.0567C9.20773 64.0816 9.06318 63.9574 9.00578 63.6844C8.7915 62.6512 8.39205 62.0989 7.81022 62.0283C7.22774 61.9585 6.27899 61.9232 4.96587 61.9232C4.81706 61.9232 4.74287 61.9766 4.74287 62.0842V67.6653C4.74287 68.0789 4.89529 68.3603 5.20077 68.5086C5.44099 68.6326 5.95714 68.7445 6.74986 68.8437C7.15525 68.8849 7.33233 69.0632 7.28344 69.3768C7.23348 69.6497 6.87039 69.7574 6.19225 69.6995C4.23437 69.5421 2.61875 69.5506 1.34687 69.7248C0.991216 69.7737 0.814135 69.6291 0.814135 69.2906C0.814135 69.0751 0.991216 68.9513 1.34687 68.9183C2.15659 68.8271 2.56114 68.1159 2.56114 66.7853V56.1681C2.56114 55.6231 2.46377 55.2036 2.27011 54.9098C2.0756 54.6162 1.714 54.3492 1.18594 54.1097C0.855163 53.9608 0.73144 53.7585 0.813922 53.5019C0.855163 53.3451 0.921489 53.2579 1.01184 53.2417C1.09453 53.2166 1.31392 53.2332 1.6685 53.2915C2.18933 53.3741 3.41657 53.4155 5.34958 53.4155C7.63037 53.4155 9.60037 53.3655 11.2615 53.2666C11.8148 53.233 12.092 53.2788 12.092 53.4028C12.092 53.4364 12.0878 53.4689 12.0791 53.5019ZM20.1162 69.2457C20.1162 69.5765 19.9302 69.7212 19.5586 69.6797C18.4191 69.5721 17.0059 69.5882 15.3205 69.7289C14.9815 69.7625 14.7733 69.7537 14.6943 69.7048C14.6156 69.6548 14.5769 69.5187 14.5769 69.2947C14.5769 69.0968 14.8016 68.9296 15.2519 68.7926C15.7028 68.6567 15.9272 68.2493 15.9272 67.5715V56.3472C15.9272 55.6771 15.8301 55.1853 15.6364 54.8708C15.4419 54.5566 15.1012 54.3129 14.6139 54.1397C14.3575 54.0482 14.2291 53.9201 14.2291 53.7546C14.2291 53.5066 14.4151 53.3207 14.787 53.1966C15.349 53.0147 15.9317 52.7341 16.535 52.3534C17.0308 52.0555 17.345 51.9072 17.4765 51.9072C17.782 51.9072 17.9355 52.1174 17.9355 52.5393C17.9355 52.5067 17.9189 52.9201 17.8853 53.7795C17.8613 54.5979 17.8528 55.404 17.8613 56.1983L17.9102 67.2733C17.9102 67.7779 18.0344 68.144 18.2822 68.3714C18.5301 68.5986 18.9561 68.7494 19.5586 68.8237C19.9302 68.8647 20.1162 69.0053 20.1162 69.2455V69.2457ZM31.3254 68.5144C31.3254 68.6884 31.0095 68.9505 30.3777 69.3015C29.7453 69.6531 29.2391 69.8288 28.8595 69.8288C28.5368 69.8288 28.2521 69.6721 28.0043 69.3576C27.7564 69.0434 27.5823 68.8866 27.4834 68.8866C27.4092 68.8866 27.0168 69.0562 26.3057 69.3947C25.5959 69.734 24.8808 69.9037 24.162 69.9037C23.4848 69.9037 22.9184 69.7048 22.4641 69.3087C21.9684 68.87 21.7205 68.2748 21.7205 67.5222C21.7205 66.0917 23.3566 65.0668 26.6286 64.4467C27.1899 64.339 27.4756 64.1116 27.4832 63.7644L27.5085 62.9705C27.5583 61.6147 26.9592 60.937 25.7113 60.937C25.3559 60.937 25.0194 61.2548 24.7007 61.8913C24.3833 62.5286 23.9263 62.8714 23.3315 62.9214C22.6542 62.9869 22.3151 62.7018 22.3151 62.0653C22.3151 61.6681 22.8194 61.2059 23.8272 60.6762C24.885 60.1224 25.9016 59.845 26.8765 59.845C28.5534 59.845 29.3837 60.6434 29.3673 62.2391L29.3174 67.3484C29.3097 67.8859 29.537 68.1544 29.9991 68.1544C30.0903 68.1544 30.264 68.134 30.5197 68.0925C30.7763 68.0512 30.9251 68.0304 30.9666 68.0304C31.2057 68.0304 31.3254 68.1923 31.3254 68.5144ZM27.5085 65.6871C27.517 65.4801 27.4688 65.3431 27.3654 65.2778C27.2621 65.2117 27.0997 65.1985 26.8765 65.2399C24.885 65.5956 23.8893 66.2449 23.8893 67.1873C23.8893 68.1382 24.4057 68.6135 25.4384 68.6135C25.8516 68.6135 26.2777 68.5352 26.7147 68.3784C27.2277 68.1959 27.4834 67.9772 27.4834 67.7204L27.5085 65.6871ZM40.5396 67.0875C40.5396 67.964 40.202 68.6611 39.5292 69.1777C38.8559 69.6946 37.937 69.9529 36.7716 69.9529C35.9952 69.9529 35.218 69.8703 34.4417 69.7048C33.772 69.5559 33.3839 69.4198 33.2765 69.2957C33.2102 69.1794 33.1774 68.6137 33.1774 67.5964C33.1774 67.1582 33.2765 66.9305 33.4751 66.9144C33.6732 66.8893 33.8428 66.9971 33.9831 67.2365C34.6026 68.3199 35.6026 68.8617 36.9825 68.8617C38.1468 68.8617 38.7295 68.4561 38.7295 67.6456C38.7295 67.2907 38.5977 66.9927 38.3328 66.7531C38.0435 66.4802 37.4824 66.1617 36.6476 65.798C35.441 65.2608 34.6353 64.7896 34.2308 64.3839C33.7927 63.9542 33.5739 63.3755 33.5739 62.6476C33.5739 61.7543 33.9168 61.0604 34.6026 60.5643C35.2386 60.0843 36.0898 59.845 37.1553 59.845C37.8249 59.845 38.4361 59.8982 38.9903 60.006C39.5851 60.1137 39.8948 60.2456 39.9197 60.403C39.9852 60.8655 40.1221 61.5356 40.3287 62.4125C40.3536 62.5193 40.2373 62.6063 39.9818 62.6725C39.7088 62.7303 39.5273 62.6846 39.4361 62.5363C38.7837 61.4692 37.9576 60.9361 36.9574 60.9361C35.8256 60.9361 35.2595 61.2999 35.2595 62.0275C35.2595 62.4329 35.4125 62.755 35.718 62.9945C35.991 63.2013 36.6311 63.5242 37.6391 63.9627C38.6967 64.4173 39.4155 64.8266 39.796 65.1902C40.2917 65.6612 40.5396 66.2943 40.5396 67.0875ZM55.12 69.2581C55.12 69.5474 54.9255 69.7006 54.5373 69.7169C53.9589 69.7255 53.2023 69.7667 52.2695 69.841C51.8065 69.9322 51.4759 69.8746 51.278 69.6678C49.9723 68.2623 48.8647 66.7904 47.9557 65.2521C47.8818 65.1202 47.7869 65.054 47.6709 65.054C47.5306 65.054 47.2872 65.178 46.9402 65.4263C46.5512 65.6407 46.3575 65.9471 46.3575 66.3432C46.3575 66.6248 46.3652 67.0297 46.3824 67.5596C46.399 68.0882 46.5306 68.4352 46.7785 68.6007C46.9521 68.7171 47.3535 68.8075 47.9806 68.8739C48.369 68.9237 48.5635 69.0683 48.5635 69.3079C48.5635 69.4983 48.5325 69.6163 48.4704 69.661C48.4088 69.7065 48.2451 69.7169 47.9806 69.6921C47.1545 69.618 45.7585 69.6593 43.7921 69.8161C43.2964 69.8574 43.0277 69.7952 42.9864 69.6299C42.97 69.5725 42.9613 69.4895 42.9613 69.3819C42.9613 69.1262 43.2137 68.9313 43.7181 68.7999C44.1724 68.6833 44.3995 68.1502 44.3995 67.1994V56.3596C44.3995 55.6818 44.3335 55.2106 44.2007 54.9462C44.0191 54.6068 43.6386 54.3422 43.0604 54.152C42.7883 54.0616 42.6516 53.9333 42.6516 53.7678C42.6516 53.5274 42.8461 53.3415 43.2341 53.2098C43.8586 53.0008 44.4541 52.7131 45.0062 52.3538C45.4609 52.0566 45.7421 51.9075 45.8488 51.9075C46.1881 51.9075 46.3575 52.1219 46.3575 52.5527C46.3575 52.4942 46.3533 52.9041 46.3446 53.7802C46.3357 54.5905 46.3317 55.4009 46.3327 56.2113L46.3575 63.9748C46.3575 64.1901 46.4152 64.2969 46.5306 64.2969C46.6545 64.2969 46.8448 64.1901 47.1012 63.9748C47.7869 63.4372 48.6296 62.7346 49.629 61.8664C49.8277 61.6598 49.9266 61.4943 49.9266 61.3703C49.9266 61.1474 49.592 60.9895 48.9232 60.8993C48.6341 60.8655 48.4972 60.7047 48.5133 60.4151C48.5384 60.1258 48.6832 60.0018 48.9472 60.0431C49.5429 60.126 50.4104 60.1716 51.5499 60.1801C52.3434 60.1877 53.1325 60.1922 53.9176 60.1922C54.1731 60.2007 54.3015 60.3532 54.3015 60.6513C54.3015 60.9321 54.0992 61.0852 53.6946 61.1104C53.0577 61.1344 52.4587 61.279 51.8977 61.5443C51.1126 61.8992 50.2735 62.5235 49.3811 63.4168C49.3156 63.4666 49.282 63.5285 49.282 63.6027C49.282 63.7183 49.4223 63.9957 49.7038 64.4339C50.7365 66.0049 51.7116 67.1909 52.6283 67.9934C53.2152 68.4976 53.7643 68.7496 54.2764 68.7496C54.657 68.7496 54.8925 68.7764 54.9829 68.8305C55.0743 68.8843 55.12 69.027 55.12 69.2581Z" fill="black"/>
</g>
<defs>
<clipPath id="clip0_7_310">
<rect width="54.4211" height="70" fill="white" transform="translate(0.78949)"/>
</clipPath>
</defs>
</svg>
