<svg width="17" height="30" viewBox="0 0 17 30" fill="none" xmlns="http://www.w3.org/2000/svg">
<g clip-path="url(#clip0_14_730)">
<path d="M15.8802 23.6562H15.7673V23.593H16.0714V23.6562H15.9592V23.9716H15.8802V23.6562ZM16.4867 23.6726H16.4849L16.3729 23.9717H16.3217L16.2105 23.6726H16.2092V23.9717H16.1348V23.5931H16.2443L16.3474 23.8612L16.4501 23.5931H16.5593V23.9717H16.4866L16.4867 23.6726Z" fill="#E76F00"/>
<path d="M5.76993 15.9134C5.76993 15.9134 4.98417 16.3706 6.32914 16.5254C7.95854 16.7114 8.79131 16.6847 10.5869 16.3446C10.5869 16.3446 11.059 16.6408 11.7183 16.8974C7.69301 18.6236 2.60829 16.7974 5.76993 15.9134ZM5.27807 13.6608C5.27807 13.6608 4.39675 14.3136 5.74272 14.4529C7.4833 14.6326 8.85787 14.6473 11.2364 14.189C11.2364 14.189 11.5654 14.5227 12.0827 14.7052C7.21589 16.1292 1.79514 14.8175 5.27807 13.6608Z" fill="#5382A1"/>
<path d="M9.42461 9.8397C10.4164 10.9823 9.16407 12.0106 9.16407 12.0106C9.16407 12.0106 11.6824 10.7097 10.5258 9.08068C9.44561 7.56149 8.61722 6.80674 13.1018 4.20428C13.1018 4.20423 6.0625 5.96338 9.42461 9.8397Z" fill="#E76F00"/>
<path d="M14.7483 17.5796C14.7483 17.5796 15.3298 18.0591 14.1079 18.4299C11.7845 19.1342 4.43748 19.3469 2.39652 18.4581C1.66285 18.1386 3.03869 17.6954 3.47148 17.6024C3.92284 17.5045 4.18077 17.5227 4.18077 17.5227C3.36485 16.9476 -1.09299 18.652 1.91641 19.1402C10.1235 20.4719 16.8772 18.5405 14.7483 17.5796ZM6.14769 11.3269C6.14769 11.3269 2.41055 12.2151 4.82427 12.5376C5.84342 12.6742 7.87507 12.6433 9.76744 12.4846C11.314 12.3541 12.8671 12.0766 12.8671 12.0766C12.8671 12.0766 12.3217 12.3103 11.9272 12.5798C8.13217 13.5785 0.800934 13.1139 2.9115 12.0923C4.69641 11.229 6.14769 11.3269 6.14769 11.3269ZM12.8517 15.0765C16.7095 13.0706 14.9258 11.1429 13.6808 11.4027C13.3756 11.4663 13.2396 11.5213 13.2396 11.5213C13.2396 11.5213 13.3529 11.3438 13.5691 11.2669C16.0321 10.4005 17.9263 13.8223 12.7741 15.1777C12.7741 15.1777 12.8339 15.1243 12.8517 15.0765Z" fill="#5382A1"/>
<path d="M10.5258 0.00195312C10.5258 0.00195312 12.6623 2.14042 8.49941 5.42892C5.16119 8.06676 7.73819 9.57082 8.49802 11.2893C6.54951 9.53012 5.11951 7.98158 6.07887 6.5403C7.48691 4.42462 11.3878 3.39887 10.5258 0.00195312Z" fill="#E76F00"/>
<path d="M6.52696 20.5119C10.23 20.7491 15.9163 20.3803 16.051 18.6271C16.051 18.6271 15.7921 19.2917 12.9906 19.8196C9.8301 20.4147 5.9319 20.3453 3.61987 19.9638C3.61998 19.9637 4.09323 20.3557 6.52696 20.5119Z" fill="#5382A1"/>
<path d="M5.92002 27.2111C5.57069 27.5143 5.20175 27.6845 4.87066 27.6845C4.39808 27.6845 4.14275 27.4009 4.14275 26.9461C4.14275 26.4542 4.41637 26.0945 5.51383 26.0945H5.91996L5.92002 27.2111ZM6.88391 28.2993V24.9308C6.88391 24.0703 6.39343 23.5025 5.21084 23.5025C4.52045 23.5025 3.91569 23.6731 3.42416 23.8907L3.56604 24.4869C3.95305 24.3448 4.454 24.2125 4.9457 24.2125C5.62695 24.2125 5.92002 24.4869 5.92002 25.0543V25.4801H5.58C3.92484 25.4801 3.17819 26.123 3.17819 27.0879C3.17819 27.9208 3.67023 28.3941 4.59666 28.3941C5.19216 28.3941 5.6367 28.1481 6.05225 27.788L6.12768 28.2994L6.88391 28.2993ZM10.1008 28.2993H8.8986L7.45176 23.5878H8.50167L9.39939 26.4825L9.59896 27.3531C10.0531 26.0944 10.3744 24.8174 10.5351 23.5878H11.5563C11.2827 25.1392 10.7903 26.8421 10.1008 28.2993ZM14.7126 27.2111C14.3626 27.5143 13.9931 27.6845 13.6619 27.6845C13.1902 27.6845 12.9342 27.4009 12.9342 26.9461C12.9342 26.4542 13.2084 26.0945 14.3058 26.0945H14.7126V27.2111ZM15.6764 28.2993V24.9308C15.6764 24.0703 15.1848 23.5025 14.0034 23.5025C13.3126 23.5025 12.7076 23.6731 12.2163 23.8907L12.358 24.4869C12.7451 24.3448 13.247 24.2125 13.7384 24.2125C14.4191 24.2125 14.7126 24.4869 14.7126 25.0543V25.4801H14.372C12.7164 25.4801 11.97 26.123 11.97 27.0879C11.97 27.9208 12.4617 28.3941 13.3879 28.3941C13.9838 28.3941 14.4282 28.1481 14.8444 27.788L14.9201 28.2994L15.6764 28.2993ZM2.1213 29.0993C1.84652 29.5008 1.40271 29.8184 0.916824 29.9981L0.440918 29.4377C0.810747 29.2478 1.12793 28.9411 1.27529 28.6555C1.40276 28.4015 1.45552 28.0741 1.45552 27.2911V21.9122H2.4796V27.2174C2.47955 28.2641 2.39592 28.687 2.1213 29.0993Z" fill="#E76F00"/>
</g>
<defs>
<clipPath id="clip0_14_730">
<rect width="16.1182" height="30" fill="white" transform="translate(0.440918)"/>
</clipPath>
</defs>
</svg>
