<svg width="70" height="70" viewBox="0 0 70 70" fill="none" xmlns="http://www.w3.org/2000/svg">
<g clip-path="url(#clip0_7_320)">
<path d="M0 0H70V70H0V0Z" fill="#F0DB4F"/>
<path d="M64.2709 53.3051C63.7585 50.1112 61.6758 47.4297 55.5076 44.9278C53.365 43.943 50.9762 43.2377 50.2643 41.6141C50.0114 40.6692 49.9781 40.1369 50.1378 39.5646C50.597 37.7082 52.8127 37.1293 54.5694 37.6616C55.7006 38.0409 56.7719 38.9126 57.4173 40.3032C60.4382 38.347 60.4315 38.3603 62.5409 37.0162C61.769 35.8185 61.3565 35.2662 60.8507 34.7539C59.0342 32.7244 56.5589 31.6797 52.5998 31.7596C51.9144 31.8461 51.2225 31.9392 50.5371 32.0257C48.5609 32.5248 46.6777 33.5628 45.5732 34.9535C42.2595 38.713 43.2044 45.2937 47.2367 48.002C51.2091 50.983 57.0447 51.6617 57.7899 54.4497C58.5152 57.8632 55.2814 58.9677 52.0675 58.5752C49.6987 58.0828 48.3812 56.8784 46.9572 54.6892C44.3356 56.2063 44.3356 56.2063 41.6407 57.7567C42.2795 59.1541 42.9515 59.7862 44.0229 60.9972C49.0932 66.1407 61.7823 65.8879 64.058 58.1027C64.1511 57.8365 64.7634 56.0532 64.2709 53.3051ZM38.0542 32.172H31.5066C31.5066 37.8279 31.4801 43.4439 31.4801 49.0998C31.4801 52.6996 31.6664 56 31.0809 57.0114C30.1227 59.0009 27.6407 58.7547 26.5096 58.3687C25.3584 57.8032 24.7729 56.998 24.0942 55.8603C23.9079 55.5342 23.7681 55.2814 23.7215 55.2614C21.9449 56.346 20.1749 57.4372 18.3983 58.5219C19.2833 60.3384 20.5874 61.9154 22.2576 62.94C24.7528 64.4372 28.1065 64.8963 31.6132 64.0912C33.8955 63.4258 35.865 62.0485 36.8964 59.9525C38.3869 57.2044 38.0675 53.8774 38.0542 50.1977C38.0874 44.1958 38.0542 38.1939 38.0542 32.172Z" fill="#323330"/>
</g>
<defs>
<clipPath id="clip0_7_320">
<rect width="70" height="70" fill="white"/>
</clipPath>
</defs>
</svg>
