<svg width="27" height="30" viewBox="0 0 27 30" fill="none" xmlns="http://www.w3.org/2000/svg">
<g clip-path="url(#clip0_14_646)">
<path d="M21.3597 14.456C21.3597 20.3997 16.6525 25.2181 10.8458 25.2181C5.0392 25.2181 0.332031 20.3997 0.332031 14.456C0.332031 8.51222 5.0392 3.69385 10.8458 3.69385C16.6525 3.69385 21.3597 8.51232 21.3597 14.4561" fill="#D33833"/>
<path d="M0.760027 17.1218C0.760027 17.1218 -0.00101487 5.8985 10.3327 5.57797L9.61183 4.37549L4.00452 6.25924L2.40227 8.10317L1.00035 10.7887L0.199219 13.9152L0.439538 15.9994" fill="#EF3D3A"/>
<path d="M3.64329 7.11432C1.79861 9.00317 0.657092 11.6111 0.657092 14.4963C0.657092 17.3806 1.79861 19.9889 3.64329 21.8776C5.48894 23.7659 8.03238 24.9314 10.8443 24.9314C13.6563 24.9314 16.1999 23.766 18.0455 21.8776C19.89 19.989 21.0317 17.3808 21.0317 14.4963C21.0317 11.6111 19.8899 9.00317 18.0455 7.11432C16.1999 5.22624 13.6564 4.06099 10.8443 4.0607C8.03238 4.06089 5.48894 5.22624 3.64329 7.11432ZM3.1765 22.3343C1.21598 20.3279 0.00390625 17.5551 0.00390625 14.4963C0.00390625 11.437 1.21598 8.66436 3.1763 6.65776C5.13634 4.65068 7.84944 3.40684 10.8442 3.40723C13.839 3.40684 16.5523 4.65068 18.512 6.65776C20.4727 8.66436 21.685 11.4373 21.6846 14.4963C21.6849 17.555 20.4727 20.3278 18.512 22.3343C16.5523 24.3412 13.839 25.5851 10.8442 25.5851C7.84954 25.5851 5.13634 24.3412 3.1765 22.3343Z" fill="#231F20"/>
<path d="M15.2716 14.5157L13.6694 14.7562L11.5065 14.9967L10.1047 15.0367L8.74285 14.9967L7.7015 14.6759L6.78031 13.6739L6.05936 11.6297L5.89911 11.1888L4.93784 10.8682L4.37713 9.94626L3.97656 8.62353L4.41711 7.46107L5.45856 7.10033L6.29968 7.50128L6.70014 8.38304L7.18078 8.30281L7.34103 8.10252L7.18078 7.18056L7.14079 6.0181L7.38111 4.41486L7.37179 3.49905L8.10207 2.33072L9.38373 1.40876L11.6267 0.446777L14.11 0.807521L16.2729 2.37074L17.2742 3.97408L17.9151 5.13644L18.0753 8.02239L17.5947 10.5076L16.7136 12.7121L15.8724 13.8745" fill="#F0D6B7"/>
<path d="M13.9083 21.45L8.1807 21.6905V22.6524L8.66133 26.0194L8.42101 26.3L4.41567 24.9372L4.13536 24.4562L3.7348 19.9269L2.81361 17.2012L2.61328 16.5599L5.81759 14.3555L6.81886 13.9546L7.70006 15.0368L8.4611 15.7183L9.3422 15.9988L9.74277 16.119L10.2234 18.2034L10.5839 18.6443L11.5051 18.3236L10.8643 19.5662L14.3489 21.2096L13.9083 21.4501" fill="#335061"/>
<path d="M4.41601 7.46126L5.45745 7.10052L6.29857 7.50147L6.69904 8.38323L7.17967 8.303L7.29983 7.82201L7.05951 6.90024L7.29983 4.69556L7.0995 3.49309L7.82046 2.65135L9.38253 1.40886L8.94208 0.807617L6.73902 1.88985L5.81793 2.61133L5.29721 3.73358L4.49618 4.81581L4.25586 6.09852L4.41601 7.46126Z" fill="#6D6B6D"/>
<path d="M6.05825 3.69359C6.05825 3.69359 6.65905 2.2106 9.06223 1.48911C11.4654 0.767623 9.18239 0.967908 9.18239 0.967908L6.57888 1.9702L5.57761 2.9721L5.13696 3.77382L6.05825 3.69359ZM4.85666 7.18078C4.85666 7.18078 4.01554 4.37496 7.21966 3.9741L7.0995 3.49311L4.89665 4.01432L4.25586 6.09855L4.41601 7.46129L4.85666 7.18078Z" fill="#DCD9D8"/>
<path d="M6.1384 10.9084L6.66288 10.3999C6.66288 10.3999 6.89954 10.4274 6.93953 10.7079C6.97952 10.9886 7.09968 13.5138 8.82209 14.8766C8.97907 15.001 7.54033 14.6761 7.54033 14.6761L6.25856 12.6721M13.5085 10.1468C13.5085 10.1468 13.6019 8.93187 13.929 9.02528C14.2559 9.11868 14.2559 9.44595 14.2559 9.44595C14.2559 9.44595 13.4618 9.95994 13.5085 10.1468ZM16.8328 5.69768C16.8328 5.69768 16.1724 5.83717 16.1118 6.41917C16.051 7.00126 16.8328 6.53942 16.9529 6.49921M11.9863 5.7378C11.9863 5.7378 11.1052 5.85804 11.1052 6.41917C11.1052 6.9802 12.1065 6.94028 12.387 6.69978M6.53906 8.34313C6.53906 8.34313 5.01698 7.42117 4.85683 8.30292C4.69649 9.18487 4.33601 9.82613 5.09715 10.7481L4.57633 10.5876L4.0957 9.34513L3.93555 8.14266L4.85683 7.18058L5.89809 7.26081L6.49888 7.7418L6.53906 8.34313ZM7.26002 5.81793C7.26002 5.81793 7.9408 2.29053 11.3854 1.60926C14.2215 1.04833 15.7111 1.72951 16.272 2.37076C16.272 2.37076 13.7486 -0.635335 11.3454 0.286533C8.94225 1.2083 7.17985 2.89177 7.21984 3.974C7.28809 5.81716 7.26002 5.81793 7.26002 5.81793ZM16.5524 2.77153C16.5524 2.77153 15.391 2.73151 15.3508 3.77372C15.3508 3.77372 15.3507 3.93398 15.431 4.09425C15.431 4.09425 16.3523 3.05214 16.9129 3.61326" fill="#F7E4CD"/>
<path d="M11.4667 4.20293C11.4667 4.20293 11.2668 2.60325 9.90409 3.53329C9.02279 4.13453 9.10296 4.97626 9.26311 5.13653C9.42345 5.29699 9.37981 5.61983 9.50179 5.39819C9.62359 5.17655 9.5835 4.45506 10.0242 4.25478C10.4647 4.0543 11.187 3.83045 11.4667 4.20293Z" fill="#F7E4CD"/>
<path d="M7.69996 15.0367L3.93503 16.7202C3.93503 16.7202 5.4971 22.933 4.69598 24.857L4.13536 24.6567L4.09518 22.2918L3.05393 17.8026L2.61328 16.5599L6.53855 13.9146L7.69996 15.0367ZM8.08716 18.4731L8.62125 19.1251V21.5301H7.98046C7.98046 21.5301 7.90029 19.8466 7.90029 19.6462C7.90029 19.4459 7.98046 18.7244 7.98046 18.7244M8.10062 21.891L6.29823 21.9711L6.81886 22.3318L8.10062 22.5322" fill="#49728B"/>
<path d="M14.2695 21.4903L15.7516 21.4502L16.1121 25.1378L14.59 25.3381L14.2695 21.4903Z" fill="#335061"/>
<path d="M14.6699 21.4902L16.9128 21.3699C16.9128 21.3699 17.8341 19.0451 17.8341 18.9248C17.8341 18.8046 18.6352 15.5579 18.6352 15.5579L16.8328 13.6741L16.4723 13.3535L15.511 14.3155V18.0432L14.6699 21.4902Z" fill="#335061"/>
<path d="M15.6715 21.2095L14.2695 21.4902L14.4699 22.6126C14.9905 22.8531 15.8718 22.2116 15.8718 22.2116M15.7115 14.1953L18.5154 16.2796L18.5954 15.3176L16.4727 13.3535L15.7115 14.1953Z" fill="#49728B"/>
<path d="M9.49147 29.3871L8.66228 26.0194L8.24989 23.5348L8.18164 21.6905L11.9347 21.4906L14.2697 21.4902L14.0575 25.6993L14.418 28.946L14.3778 29.5472L11.3339 29.7877L9.49147 29.3871Z" fill="#EEF2F6"/>
<path d="M13.7491 21.45C13.7491 21.45 13.5487 25.6185 14.1495 28.5847C14.1495 28.5847 12.9479 29.3464 11.1855 29.5467L14.5501 29.4264L14.9507 29.1859L14.47 22.6125L14.3499 21.2095" fill="#DCD9D8"/>
<path d="M16.1807 24.8173L17.7428 24.3764L20.7067 24.2161L21.1473 22.8532L20.3462 20.4884L19.4251 20.3682L18.1433 20.7689L16.9136 21.3698L16.2608 21.2499L15.752 21.4499" fill="#EEF2F6"/>
<path d="M16.1523 24.0157C16.1523 24.0157 17.1936 23.5348 17.3539 23.5749L16.9133 21.3702L17.434 21.1699C17.434 21.1699 17.7945 23.2542 17.7945 23.4946C17.7945 23.4946 20.0374 23.6149 20.2378 23.6149C20.2378 23.6149 20.7184 22.693 20.5982 21.731L21.0388 23.0137L21.0789 23.7351L20.438 24.6971L19.717 24.8575L18.5154 24.8174L18.1149 24.2964L16.7132 24.4966L16.2725 24.6571" fill="#DCD9D8"/>
<path d="M14.5778 21.1699L13.6967 18.9254L12.7754 17.6027C12.7754 17.6027 12.9756 17.0415 13.256 17.0415H14.1773L15.0584 17.3622L14.9784 18.8452L14.5778 21.1699Z" fill="#EEF2F6"/>
<path d="M14.7497 20.4081C14.7497 20.4081 13.6283 18.2437 13.6283 17.9231C13.6283 17.9231 13.8286 17.4421 14.109 17.5624C14.3893 17.6826 14.9901 18.0031 14.9901 18.0031V17.2416L13.6283 16.9609L12.707 17.0812L14.2691 20.7688L14.5896 20.8091" fill="#DCD9D8"/>
<path d="M9.85222 15.1177L8.74262 14.997L7.70117 14.6763V15.037L8.21007 15.5986L9.81223 16.3201" fill="#EEF2F6"/>
<path d="M8.06157 15.2378C8.06157 15.2378 9.30315 15.7589 9.70381 15.6387L9.74351 16.1192L8.62228 15.8791L7.94141 15.3982L8.06157 15.2378Z" fill="#DCD9D8"/>
<path d="M16.1749 17.1779C15.4953 17.1579 14.8814 17.0771 14.3437 16.9254C14.3802 16.7048 14.3118 16.4883 14.3668 16.3294C14.5165 16.2214 14.7678 16.2231 14.9942 16.1978C14.7983 16.1014 14.5233 16.0634 14.2972 16.1189C14.2918 15.9659 14.2232 15.871 14.1816 15.7513C14.5637 15.6147 15.4658 14.72 15.9733 15.0163C16.215 15.1572 16.3178 15.9621 16.3365 16.3535C16.3522 16.6783 16.3071 17.0059 16.1749 17.1779Z" fill="#D33833"/>
<path d="M16.1749 17.1779C15.4953 17.1579 14.8814 17.0771 14.3437 16.9254C14.3802 16.7048 14.3118 16.4883 14.3668 16.3294C14.5165 16.2214 14.7678 16.2231 14.9942 16.1978C14.7983 16.1014 14.5233 16.0634 14.2972 16.1189C14.2918 15.9659 14.2232 15.871 14.1816 15.7513C14.5637 15.6147 15.4658 14.72 15.9733 15.0163C16.215 15.1572 16.3178 15.9621 16.3365 16.3535C16.3522 16.6783 16.3071 17.0059 16.1749 17.1779Z" stroke="#D33833" stroke-width="6.14065"/>
<path d="M12.9265 16.0658C12.9246 16.1173 12.9224 16.1692 12.9204 16.2211C12.7083 16.3606 12.3657 16.3589 12.1327 16.4761C12.4761 16.4911 12.7463 16.5739 12.9801 16.6906L12.965 17.0794C12.5761 17.3459 12.2208 17.7427 11.7628 17.9926C11.5463 18.1108 10.7863 18.4149 10.556 18.3611C10.4257 18.3308 10.4139 18.169 10.3618 18.0164C10.2508 17.6898 9.99515 17.1698 9.97275 16.6778C9.94449 16.0566 9.88172 15.0156 10.5507 15.1436C11.0903 15.2465 11.7181 15.4954 12.1359 15.7239C12.3913 15.8633 12.5391 16.036 12.9265 16.0658Z" fill="#D33833"/>
<path d="M12.9265 16.0658C12.9246 16.1173 12.9224 16.1692 12.9204 16.2211C12.7083 16.3606 12.3657 16.3589 12.1327 16.4761C12.4761 16.4911 12.7463 16.5739 12.9801 16.6906L12.965 17.0794C12.5761 17.3459 12.2208 17.7427 11.7628 17.9926C11.5463 18.1108 10.7863 18.4149 10.556 18.3611C10.4257 18.3308 10.4139 18.169 10.3618 18.0164C10.2508 17.6898 9.99515 17.1698 9.97275 16.6778C9.94449 16.0566 9.88172 15.0156 10.5507 15.1436C11.0903 15.2465 11.7181 15.4954 12.1359 15.7239C12.3913 15.8633 12.5391 16.036 12.9265 16.0658Z" stroke="#D33833" stroke-width="6.14065"/>
<path d="M13.3126 16.8072C13.253 16.4689 13.1844 16.3723 13.211 16.077C14.1129 15.4754 14.2822 17.1106 13.3125 16.8072" fill="#D33833"/>
<path d="M13.3126 16.8072C13.253 16.4689 13.1844 16.3723 13.211 16.077C14.1129 15.4754 14.2822 17.1106 13.3125 16.8072H13.3126Z" stroke="#D33833" stroke-width="6.14065"/>
<path d="M14.6175 17.0817C14.6175 17.0817 14.3371 16.6809 14.5376 16.5606C14.7377 16.4404 14.9381 16.5607 15.0583 16.3602C15.1784 16.1599 15.0583 16.0397 15.0983 15.7992C15.1385 15.5587 15.3389 15.5185 15.5389 15.4785C15.7392 15.4385 16.3001 15.3582 16.38 15.5587L16.1397 14.8372L15.6591 14.6768L14.137 15.5587L14.057 15.9995V16.8814M10.412 18.4044C10.3638 17.779 10.313 17.1542 10.2562 16.5293C10.1715 15.5962 10.4802 15.759 11.2885 15.759C11.412 15.759 12.0486 15.9064 12.0942 15.9995C12.3127 16.446 11.7289 16.3468 12.3459 16.6835C12.8666 16.9676 13.7867 16.511 13.5763 15.8792C13.4585 15.7388 12.9627 15.8355 12.7851 15.7434L11.8464 15.2564C11.4482 15.0495 10.5282 14.7484 10.1036 15.0372C9.02821 15.7693 10.1715 17.598 10.5552 18.3615" fill="#EF3D3A"/>
<path d="M11.4668 4.20303C10.3752 3.94858 9.83275 4.66026 9.50188 5.39829C9.20638 5.32662 9.32404 4.92451 9.39864 4.71961C9.59406 4.18186 10.3815 3.46605 11.0249 3.56312C11.3018 3.60477 11.6765 3.85816 11.4668 4.20303ZM16.7859 5.44716L16.8377 5.44908C17.0844 5.96201 17.2979 6.50534 17.609 6.95805C17.4007 7.44395 16.0305 7.87395 16.0515 7.00143C16.3478 6.87185 16.8593 6.97498 17.122 6.80942C16.9702 6.39231 16.751 6.03714 16.7859 5.44716ZM12.0258 5.46043C12.2599 5.88986 12.3361 6.34103 12.6688 6.66561C12.8187 6.81173 13.11 6.98979 12.9655 7.39614C12.9318 7.49195 12.6851 7.70561 12.5426 7.74755C12.0224 7.90118 10.8104 7.77929 11.2208 7.13024C11.6512 7.15035 12.2292 7.4098 12.5508 7.09744C12.304 6.70235 11.8638 5.92094 12.0258 5.46043ZM16.5906 9.82476C15.8075 10.3284 14.9341 10.8757 13.6508 10.7487C13.3766 10.5102 13.2721 9.97925 13.5385 9.62861C13.6772 9.86718 13.59 10.3059 13.9764 10.372C14.7046 10.4967 15.5521 9.92625 16.076 9.72673C16.4007 9.17879 16.0479 8.97725 15.7554 8.62459C15.1565 7.90195 14.3529 7.00634 14.382 5.92459C14.6242 5.74893 14.645 6.19279 14.6798 6.2736C14.9926 7.00605 15.7797 7.94302 16.3542 8.56995C16.4952 8.72434 16.7275 8.87249 16.7533 8.97456C16.8278 9.27162 16.5595 9.62726 16.5906 9.82476ZM6.26555 9.2947C6.02014 9.15445 5.9616 8.53685 5.67341 8.51935C5.2617 8.49424 5.33677 9.32039 5.33831 9.80359C5.05493 9.54617 5.00504 8.75301 5.21325 8.3458C4.97581 8.22921 4.86978 8.47452 4.73828 8.5609C4.90747 7.33082 6.53635 7.99045 6.26555 9.2947ZM17.0893 10.337C16.7248 11.0315 16.2091 11.7962 15.1393 11.8185C15.1175 11.5942 15.1008 11.2529 15.1404 11.1178C15.9583 11.0393 16.4631 10.6227 17.0893 10.337ZM11.9642 10.7872C12.6464 11.1464 13.9004 11.1849 14.8278 11.1577C14.8775 11.361 14.8764 11.6122 14.8783 11.8602C13.6861 11.9197 12.2767 11.6245 11.9642 10.7872ZM11.8344 11.4568C12.3063 12.6423 13.928 12.5058 15.2955 12.4731C15.2353 12.627 15.1048 12.8088 14.9426 12.8746C14.5043 13.0531 13.2956 13.1884 12.6872 12.865C12.3013 12.6598 12.0536 12.196 11.8421 11.9242C11.7401 11.7929 11.2317 11.4575 11.8344 11.4568Z" fill="#231F20"/>
<path d="M16.5334 17.9957C15.9797 18.9447 15.45 19.9195 14.793 20.7566C15.0684 19.9462 15.1862 18.59 15.2278 17.5559C15.804 17.2862 16.2974 17.6167 16.5334 17.9957Z" fill="#81B0C4"/>
<path d="M19.5118 21.4067C18.8919 21.5309 18.4563 22.1339 17.8516 22.0951C18.1839 21.6263 18.7663 21.4286 19.5118 21.4067ZM19.7853 22.3776C19.28 22.4312 18.6865 22.5129 18.1741 22.4707C18.4166 22.0998 19.3513 22.2278 19.7853 22.3776ZM19.9603 23.2147C19.3925 23.227 18.6866 23.2156 18.1471 23.1704C18.4662 22.8272 19.592 23.043 19.9603 23.2147Z" fill="#231F20"/>
<path d="M15.4644 25.5053C15.5458 26.219 15.8285 26.9421 15.7932 27.7237C15.4792 27.8296 15.2988 27.9224 14.8781 27.9219C14.8484 27.2575 14.7595 26.2421 14.7862 25.6088C14.9931 25.6226 15.2982 25.4609 15.4644 25.5053Z" fill="#DCD9D8"/>
<path d="M14.5499 14.9869C14.2648 15.1732 14.022 15.4059 13.7481 15.6047C13.1408 15.6348 12.8094 15.5627 12.3633 15.2137C12.3706 15.1858 12.4154 15.1983 12.4171 15.1638C13.0671 15.4536 13.8935 15.0455 14.5499 14.9868" fill="#F0D6B7"/>
<path d="M11.1367 19.4215C11.3153 18.6471 12.0151 18.246 12.6506 17.8193C13.3066 18.6524 13.7055 19.7239 14.1448 20.7577C13.1069 20.4446 12.0464 19.9366 11.1367 19.4215Z" fill="#81B0C4"/>
<path d="M14.7873 25.6087C14.7608 26.242 14.8495 27.2574 14.8792 27.9218C15.3001 27.9224 15.4803 27.8297 15.7943 27.7236C15.8298 26.942 15.547 26.2189 15.4656 25.5052C15.2993 25.4608 14.9943 25.6224 14.7873 25.6087ZM8.237 22.0074C8.51442 24.5595 8.91614 26.7047 9.65295 28.9646C11.2887 29.4615 13.2602 29.5048 14.7059 29.0564C14.4406 27.7809 14.5564 26.2281 14.4014 24.8669C14.2844 23.8438 14.3441 22.8145 14.1837 21.7708C12.432 21.4062 9.95604 21.6856 8.237 22.0074ZM14.5977 21.787C14.583 22.8829 14.6468 23.964 14.7304 25.0614C15.1511 24.9983 15.4365 24.9561 15.827 24.8704C15.7002 23.8139 15.7158 22.6251 15.4573 21.6905C15.1587 21.6933 14.8956 21.6871 14.5978 21.787H14.5977ZM16.7313 21.6102C16.5316 21.5645 16.2993 21.6084 16.1086 21.6121C16.1983 22.5056 16.4157 23.4917 16.4922 24.4294C16.7923 24.4387 16.9526 24.2971 17.1994 24.2495C17.2126 23.4262 17.1273 22.2921 16.7313 21.6102ZM19.9617 24.5639C20.5871 24.412 20.9802 23.6454 20.8054 22.858C20.688 22.3289 20.4789 21.3327 20.2551 20.9942C20.0898 20.744 19.6416 20.4162 19.2836 20.6454C18.7012 21.0187 17.6754 21.1269 17.2509 21.5786C17.4638 22.288 17.5298 23.2625 17.6177 24.1615C18.3451 24.207 19.24 23.9612 19.8451 24.2221C19.4227 24.3589 18.8746 24.3599 18.5098 24.5595C18.8081 24.7036 19.5063 24.6745 19.9617 24.5639ZM14.1456 20.7575C13.7063 19.7237 13.3072 18.6522 12.6514 17.8191C12.0159 18.2458 11.3161 18.6468 11.1374 19.4213C12.0471 19.9364 13.1076 20.4444 14.1456 20.7575ZM15.2284 17.556C15.1868 18.59 15.069 19.9463 14.7936 20.7565C15.4505 19.9196 15.9803 18.9448 16.5339 17.9959C16.298 17.6166 15.8046 17.2861 15.2284 17.5559V17.556ZM14.0009 17.1195C13.752 17.0926 13.5408 17.4058 13.2171 17.2703C13.1431 17.3524 13.0757 17.4413 13.0001 17.5214C13.7148 18.3833 14.0395 19.6062 14.5916 20.6193C14.8878 19.6462 14.8536 18.5803 14.9189 17.5182C14.5119 17.5439 14.2861 17.1498 14.0009 17.1195ZM13.2116 16.0769C13.185 16.3721 13.2536 16.4688 13.3131 16.8071C14.2826 17.1104 14.1134 15.4752 13.2116 16.077V16.0769ZM12.1362 15.7236C11.7184 15.4952 11.0906 15.2462 10.551 15.1433C9.88202 15.0152 9.9448 16.0565 9.97315 16.6776C9.99545 17.1695 10.251 17.6896 10.3621 18.0161C10.4143 18.1687 10.4259 18.3306 10.5563 18.3609C10.7866 18.4146 11.5465 18.1105 11.7631 17.9923C12.2211 17.7425 12.5764 17.3456 12.9653 17.0792C12.9704 16.9495 12.9753 16.8199 12.9805 16.6903C12.7466 16.5739 12.4764 16.4909 12.1331 16.4759C12.366 16.3586 12.7086 16.3603 12.9208 16.2208C12.9227 16.1689 12.9249 16.1172 12.9268 16.0656C12.5393 16.036 12.3916 15.8633 12.1362 15.7236ZM8.14539 14.998C7.79856 15.3504 9.11791 15.8305 9.53818 15.8565C9.53577 15.6334 9.66506 15.4234 9.63911 15.2634C9.14002 15.1758 8.48443 15.2336 8.14539 14.998ZM12.4173 15.1635C12.4156 15.1979 12.3708 15.1854 12.3635 15.2135C12.8096 15.5624 13.141 15.6346 13.7483 15.6045C14.0221 15.4056 14.265 15.173 14.5501 14.9867C13.8936 15.0454 13.0673 15.4534 12.4173 15.1635ZM16.3383 16.3535C16.3196 15.9619 16.2168 15.1571 15.9751 15.0163C15.4676 14.7197 14.5656 15.6147 14.1835 15.7513C14.2251 15.8709 14.2937 15.9658 14.2989 16.1189C14.525 16.0633 14.8002 16.1013 14.996 16.1978C14.7696 16.2231 14.5183 16.2215 14.3686 16.3293C14.3136 16.4881 14.382 16.7046 14.3455 16.9253C14.8831 17.0771 15.4971 17.1579 16.1767 17.1778C16.3088 17.0056 16.3539 16.678 16.3382 16.3534L16.3383 16.3535ZM7.5616 15.3389C7.45279 15.2611 6.71607 14.3019 6.61523 14.3418C5.28223 14.8679 4.03584 15.7776 2.92192 16.6379C3.98393 18.9183 4.41266 21.7121 4.48831 24.4048C5.70481 24.9743 6.77336 25.7951 8.42416 25.8807C8.23305 24.5282 8.05858 23.3215 7.95025 22.0481C7.53546 21.873 6.94043 22.056 6.55227 21.9938C6.54909 21.5257 7.14518 21.7887 7.19478 21.474C7.23217 21.2359 6.8667 21.2179 6.9857 20.8429C7.28927 20.9534 7.44856 21.197 7.77212 21.2887C8.06791 20.6413 7.76809 19.4958 7.81057 18.9547C7.81865 18.8531 7.86133 18.3919 8.08867 18.4727C8.28996 18.5443 8.07723 19.6995 8.09924 20.2117C8.11933 20.6835 8.04224 21.14 8.23325 21.4363C9.82848 21.2189 11.4494 21.0784 13.1753 21.0311C12.7956 20.868 12.3446 20.7138 11.85 20.4349C11.5818 20.2836 10.7367 19.9689 10.6593 19.714C10.536 19.308 10.9832 19.0916 11.0597 18.7435C10.2545 19.1831 10.0973 18.3223 9.90692 17.7126C9.73437 17.1604 9.63603 16.7478 9.59374 16.4293C8.90018 16.0983 8.15856 15.7632 7.5616 15.3389ZM15.6338 14.4578C16.7445 13.9189 16.9446 16.4721 16.5092 17.2946C16.5765 17.5399 16.808 17.6338 16.9024 17.8543C16.2827 18.9654 15.5943 20.0026 14.9619 21.1006C15.4323 20.8074 16.1043 21.0481 16.6579 20.8289C16.8602 20.7488 17.0066 20.2853 17.1598 19.9144C17.5813 18.8941 18.0235 17.6078 18.2205 16.6341C18.2649 16.4123 18.386 15.9289 18.3589 15.7314C18.3105 15.3779 17.8312 15.1158 17.5874 14.8972C17.1382 14.4934 16.8554 14.1382 16.3868 13.7606C16.1969 14.041 15.7892 14.2296 15.6338 14.4578ZM5.02153 4.6014C4.49216 5.18398 4.60299 6.27602 4.66711 7.05282C5.62377 6.45043 6.89333 7.10025 6.88131 8.12466C7.33801 8.11245 7.05194 7.55373 6.96936 7.19385C6.69944 6.01831 7.42424 4.74118 7.00224 3.66617C6.18294 3.72841 5.50986 4.06327 5.02153 4.6014ZM8.80818 1.21936C7.61024 1.55914 6.0747 2.43031 5.58244 3.50744C5.96368 3.45193 6.22822 3.25954 6.60427 3.23577C6.74654 3.22654 6.93264 3.29532 7.09596 3.25473C7.42145 3.17392 7.69609 2.44358 7.94169 2.17182C8.18105 1.90641 8.46885 1.79299 8.66582 1.55106C8.79223 1.48997 8.97929 1.4943 8.9865 1.30411C8.93161 1.24543 8.87384 1.2007 8.80818 1.21936ZM15.0448 1.53893C13.8013 0.836976 11.6964 0.308848 10.3737 0.968575C9.30641 1.50132 7.86364 2.3824 7.37166 3.49897C7.83114 4.57668 7.23554 5.56396 7.19757 6.65793C7.17738 7.23993 7.47144 7.74814 7.49393 8.3818C7.33657 8.64154 6.85632 8.67348 6.52372 8.65568C6.41182 8.09513 6.21592 7.46503 5.63896 7.40173C4.82274 7.31237 4.22608 7.98845 4.18888 8.69493C4.14495 9.52569 4.82649 10.9027 5.79247 10.8072C6.16545 10.7702 6.25735 10.3959 6.66377 10.3998C6.8841 10.8398 6.32387 10.9779 6.26619 11.2926C6.25119 11.3739 6.31272 11.6916 6.34838 11.8406C6.52381 12.5659 6.91495 13.5048 7.29994 14.0572C7.78846 14.7579 8.74858 14.8633 9.78138 14.932C9.96575 14.5344 10.6453 14.5672 11.088 14.6712C10.5574 14.4609 10.0641 13.951 9.65526 13.4997C9.18568 12.982 8.71004 12.4266 8.68601 11.7498C9.57345 12.9818 10.3067 14.058 11.9203 14.5998C13.1414 15.0097 14.5675 14.412 15.5055 13.7526C15.8948 13.4786 16.1272 13.0438 16.4039 12.6458C17.4392 11.1553 17.9224 9.02777 17.8163 6.96596C17.7725 6.11547 17.7744 5.26806 17.4894 4.69597C17.1914 4.09761 16.1835 3.56246 15.5934 4.10358C15.4841 3.52187 16.0841 3.16189 16.7888 3.37141C16.2864 2.72208 15.7591 1.94229 15.0448 1.53893ZM17.3616 20.7265C18.3334 20.2431 20.1489 19.4254 20.7582 20.7284C20.983 21.2087 21.2467 22.0205 21.3632 22.5164C21.5276 23.2158 21.1849 24.6861 20.4663 24.9208C19.8319 25.1281 19.0914 25.1156 18.3271 24.9618C18.2371 24.8868 18.1369 24.7563 18.0668 24.6202C17.5211 24.599 17.01 24.6496 16.5788 24.874C16.6197 25.2779 16.3467 25.3427 16.0908 25.4259C15.901 26.1788 16.4704 27.1621 16.3341 27.8486C16.2369 28.3376 15.6356 28.4133 15.1936 28.5047C15.1792 28.7765 15.2131 29.0034 15.2431 29.2333C15.1422 29.606 14.6889 29.8181 14.2593 29.8701C12.8465 30.0399 10.701 30.1163 9.34208 29.6272C8.96285 28.6962 8.66399 27.5637 8.34812 26.5009C7.02262 26.6426 5.95051 25.9286 4.93992 25.4608C4.59002 25.2985 4.10582 25.209 3.97528 24.9303C3.84849 24.6603 3.9003 24.1432 3.86887 23.6545C3.78889 22.4068 3.72035 21.2032 3.39112 19.9256C3.24327 19.3522 2.98546 18.8462 2.8057 18.2939C2.63959 17.7819 2.34938 17.1491 2.27354 16.6386C2.16136 15.8819 2.87328 15.8398 3.32854 15.5118C4.03248 15.0049 4.58492 14.7243 5.34712 14.2667C5.57292 14.1311 6.2536 13.7881 6.33108 13.6301C6.48498 13.3169 6.06682 12.8752 5.95503 12.6296C5.77815 12.2414 5.68597 11.9115 5.66059 11.5283C5.02115 11.4272 4.53647 11.0463 4.24367 10.617C3.75928 9.90635 3.42332 8.59151 3.84243 7.59134C3.87531 7.51265 4.0393 7.35777 4.06353 7.23685C4.11111 6.99866 3.97365 6.68179 3.96519 6.4285C3.92116 5.12867 4.18494 4.00873 5.05931 3.61662C5.41431 2.20135 6.68483 1.73085 7.8819 1.02754C8.32937 0.764635 8.8226 0.596673 9.33208 0.409086C11.1595 -0.263916 13.9631 -0.137223 15.4798 1.01071C16.1229 1.49747 17.1508 2.52525 17.5185 3.26935C18.4897 5.23372 18.4206 8.51696 17.7415 10.9065C17.6502 11.2274 17.5177 11.699 17.3328 12.0845C17.2039 12.3535 16.8031 12.8921 16.8517 13.1297C16.9018 13.3753 17.7655 14.0315 17.9506 14.2102C18.2841 14.532 18.9176 14.9594 18.9689 15.3656C19.024 15.7978 18.7785 16.3891 18.654 16.8065C18.2387 18.1986 17.833 19.4855 17.3616 20.7265Z" fill="#231F20"/>
<path d="M10.8768 11.0904C10.9295 11.0202 11.2193 10.9136 11.6249 11.109C11.6249 11.109 11.1443 11.189 11.1843 11.9911L10.9841 11.9509C10.984 11.9509 10.777 11.2239 10.8768 11.0904Z" fill="#F7E4CD"/>
<path d="M14.3897 17.9831C14.3897 18.0415 14.3665 18.0976 14.3252 18.1389C14.2839 18.1803 14.2279 18.2035 14.1694 18.2035C14.111 18.2035 14.055 18.1803 14.0137 18.1389C13.9724 18.0976 13.9492 18.0415 13.9492 17.9831C13.9492 17.9246 13.9724 17.8686 14.0137 17.8272C14.055 17.7859 14.111 17.7627 14.1694 17.7627C14.2279 17.7627 14.2839 17.7859 14.3252 17.8272C14.3665 17.8686 14.3897 17.9246 14.3897 17.9831ZM14.61 19.0052C14.61 19.0637 14.5867 19.1198 14.5454 19.1611C14.504 19.2024 14.448 19.2257 14.3895 19.2256C14.3311 19.2256 14.275 19.2023 14.2337 19.161C14.1924 19.1196 14.1692 19.0635 14.1693 19.005C14.1693 18.9465 14.1925 18.8905 14.2339 18.8491C14.2752 18.8078 14.3312 18.7846 14.3897 18.7846C14.4481 18.7846 14.5041 18.8079 14.5454 18.8493C14.5867 18.8906 14.6099 18.9467 14.6099 19.0052" fill="#1D1919"/>
</g>
<defs>
<clipPath id="clip0_14_646">
<rect width="27" height="30" fill="white"/>
</clipPath>
</defs>
</svg>
