<svg width="19" height="30" viewBox="0 0 19 30" fill="none" xmlns="http://www.w3.org/2000/svg">
<g clip-path="url(#clip0_14_723)">
<path d="M14.8191 16.6242C13.6528 16.6242 12.6071 17.1412 11.891 17.9552L10.0562 16.6556C10.251 16.1191 10.3628 15.543 10.3628 14.94C10.3628 14.3474 10.2549 13.781 10.0665 13.2524L11.8972 11.9666C12.6132 12.7765 13.6561 13.2906 14.8191 13.2906C16.9719 13.2906 18.7236 11.5384 18.7236 9.3843C18.7236 7.23021 16.9719 5.47797 14.8191 5.47797C12.6663 5.47797 10.9146 7.23021 10.9146 9.3843C10.9146 9.76985 10.9729 10.1416 11.0774 10.4937L9.24539 11.7802C8.48011 10.8304 7.37825 10.1672 6.12284 9.96472V7.75577C7.89146 7.38413 9.22406 5.81198 9.22406 3.93343C9.22406 1.77934 7.47236 0.0270996 5.31959 0.0270996C3.16681 0.0270996 1.41512 1.77934 1.41512 3.93343C1.41512 5.78682 2.7132 7.33957 4.44644 7.73775V9.97539C2.08102 10.3908 0.276367 12.4561 0.276367 14.94C0.276367 17.4359 2.09889 19.5089 4.48139 19.9101V22.2729C2.73042 22.658 1.41512 24.2203 1.41512 26.0863C1.41512 28.2404 3.16681 29.9926 5.31959 29.9926C7.47236 29.9926 9.22406 28.2404 9.22406 26.0863C9.22406 24.2203 7.90876 22.658 6.15778 22.2729V19.9101C7.36369 19.7068 8.45466 19.072 9.22752 18.1239L11.0746 19.4319C10.9721 19.7808 10.9146 20.1489 10.9146 20.5306C10.9146 22.6847 12.6663 24.4369 14.8191 24.4369C16.9719 24.4369 18.7236 22.6847 18.7236 20.5306C18.7236 18.3765 16.9719 16.6242 14.8191 16.6242ZM14.8191 7.49032C15.863 7.49032 16.7121 8.34016 16.7121 9.3843C16.7121 10.4284 15.863 11.2782 14.8191 11.2782C13.7752 11.2782 12.9261 10.4284 12.9261 9.3843C12.9261 8.34016 13.7752 7.49032 14.8191 7.49032ZM3.42652 3.93343C3.42652 2.88929 4.27566 2.03953 5.31959 2.03953C6.36351 2.03953 7.21259 2.88929 7.21259 3.93343C7.21259 4.97756 6.36351 5.82733 5.31959 5.82733C4.27566 5.82733 3.42652 4.97756 3.42652 3.93343ZM7.21259 26.0863C7.21259 27.1304 6.36351 27.9802 5.31959 27.9802C4.27566 27.9802 3.42652 27.1304 3.42652 26.0863C3.42652 25.0421 4.27566 24.1924 5.31959 24.1924C6.36351 24.1924 7.21259 25.0421 7.21259 26.0863ZM5.31944 17.5814C3.86348 17.5814 2.67904 16.3966 2.67904 14.94C2.67904 13.4833 3.86348 12.2983 5.31944 12.2983C6.77533 12.2983 7.95977 13.4833 7.95977 14.94C7.95977 16.3966 6.77533 17.5814 5.31944 17.5814ZM14.8191 22.4245C13.7752 22.4245 12.9261 21.5747 12.9261 20.5306C12.9261 19.4864 13.7752 18.6367 14.8191 18.6367C15.863 18.6367 16.7121 19.4864 16.7121 20.5306C16.7121 21.5747 15.863 22.4245 14.8191 22.4245Z" fill="black"/>
</g>
<defs>
<clipPath id="clip0_14_723">
<rect width="18.4472" height="30" fill="white" transform="translate(0.276367)"/>
</clipPath>
</defs>
</svg>
