<svg width="70" height="70" viewBox="0 0 70 70" fill="none" xmlns="http://www.w3.org/2000/svg">
<g clip-path="url(#clip0_7_347)">
<path d="M70 0H35.1458L1.86374 35H34.9387L35.0933 34.8425L70 0Z" fill="url(#paint0_linear_7_347)"/>
<path d="M35.0933 34.8425L34.9388 35H35.2508L35.0933 34.8425Z" fill="url(#paint1_linear_7_347)"/>
<path d="M35.1458 0H0V36.96V35H1.86375L35.1458 0Z" fill="url(#paint2_linear_7_347)"/>
<path d="M34.9387 35H1.86375L0 36.96V70L34.9387 35Z" fill="url(#paint3_linear_7_347)"/>
<path d="M35.2508 35H34.9388L0 70H70L35.2508 35Z" fill="url(#paint4_linear_7_347)"/>
<path d="M1.86375 35H0V36.96L1.86375 35Z" fill="url(#paint5_linear_7_347)"/>
</g>
<defs>
<linearGradient id="paint0_linear_7_347" x1="-12.4936" y1="63.9704" x2="52.6451" y2="-1.16831" gradientUnits="userSpaceOnUse">
<stop stop-color="#C757BC"/>
<stop offset="0.108" stop-color="#C757BC"/>
<stop offset="0.173" stop-color="#CD5CA9"/>
<stop offset="0.492" stop-color="#E8744F"/>
<stop offset="0.716" stop-color="#F88316"/>
<stop offset="0.823" stop-color="#FF8900"/>
<stop offset="1" stop-color="#FF8900"/>
</linearGradient>
<linearGradient id="paint1_linear_7_347" x1="22.6127" y1="82.6091" x2="54.3625" y2="50.8594" gradientUnits="userSpaceOnUse">
<stop stop-color="#00AFFF"/>
<stop offset="0.296" stop-color="#00AFFF"/>
<stop offset="0.694" stop-color="#5282FF"/>
<stop offset="1" stop-color="#945DFF"/>
</linearGradient>
<linearGradient id="paint2_linear_7_347" x1="-0.73826" y1="19.3453" x2="21.5346" y2="-2.92807" gradientUnits="userSpaceOnUse">
<stop stop-color="#00AFFF"/>
<stop offset="0.296" stop-color="#00AFFF"/>
<stop offset="0.694" stop-color="#5282FF"/>
<stop offset="1" stop-color="#945DFF"/>
</linearGradient>
<linearGradient id="paint3_linear_7_347" x1="-12.1028" y1="64.3612" x2="53.0359" y2="-0.77747" gradientUnits="userSpaceOnUse">
<stop stop-color="#AD4CA4"/>
<stop offset="0.108" stop-color="#AD4CA4"/>
<stop offset="0.173" stop-color="#B25093"/>
<stop offset="0.492" stop-color="#CA6545"/>
<stop offset="0.716" stop-color="#D87213"/>
<stop offset="0.823" stop-color="#DE7700"/>
<stop offset="1" stop-color="#DE7700"/>
</linearGradient>
<linearGradient id="paint4_linear_7_347" x1="22.6127" y1="82.6091" x2="54.3625" y2="50.8594" gradientUnits="userSpaceOnUse">
<stop stop-color="#0098DE"/>
<stop offset="0.296" stop-color="#0098DE"/>
<stop offset="0.694" stop-color="#4771DE"/>
<stop offset="1" stop-color="#8151DE"/>
</linearGradient>
<linearGradient id="paint5_linear_7_347" x1="8.01519" y1="28.0986" x2="30.288" y2="5.82515" gradientUnits="userSpaceOnUse">
<stop stop-color="#0098DE"/>
<stop offset="0.296" stop-color="#0098DE"/>
<stop offset="0.694" stop-color="#4771DE"/>
<stop offset="1" stop-color="#8151DE"/>
</linearGradient>
<clipPath id="clip0_7_347">
<rect width="70" height="70" fill="white"/>
</clipPath>
</defs>
</svg>
