<svg width="70" height="70" viewBox="0 0 70 70" fill="none" xmlns="http://www.w3.org/2000/svg">
<path d="M32.2147 9.10077L33.7317 11.9501C34.0728 12.4759 34.4423 12.9413 34.8775 13.3747C36.1534 14.6347 37.3428 15.9796 38.4373 17.4C41.0077 20.7751 42.7415 24.5232 43.9796 28.5769C44.7221 31.0532 45.1254 33.5934 45.1556 36.162C45.2799 43.8412 42.6473 50.4351 37.3395 55.9152C36.4762 56.7843 35.5435 57.5815 34.5506 58.2991C34.0248 58.2991 33.7761 57.8959 33.5594 57.5246C33.1648 56.8362 32.9021 56.0801 32.7849 55.2953C32.5984 54.3662 32.4758 53.4372 32.5362 52.478V52.0445C32.4936 51.9521 32.03 9.31926 32.2147 9.10077Z" fill="#599636"/>
<path d="M32.2147 9.00661C32.1526 8.88226 32.0904 8.97641 32.0282 9.03681C32.0584 9.65854 31.8417 10.2128 31.5024 10.7421C31.1294 11.2679 30.6355 11.6712 30.1399 12.1046C27.3866 14.4885 25.2194 17.368 23.4839 20.5885C21.1746 24.9229 19.9844 29.5681 19.6469 34.4584C19.4924 36.2224 20.2047 42.4468 20.7607 44.2427C22.2777 49.0105 25.0027 53.0055 28.5323 56.473C29.3992 57.3079 30.3264 58.0824 31.2857 58.8267C31.5646 58.8267 31.5948 58.578 31.6587 58.3933C31.781 57.9979 31.8742 57.5942 31.9376 57.1853L32.5593 52.5419L32.2147 9.00661Z" fill="#6CAC48"/>
<path d="M33.7317 60.1856C33.7939 59.475 34.135 58.8853 34.5062 58.2973C34.1332 58.1428 33.8561 57.8354 33.6394 57.4926C33.4525 57.168 33.2978 56.8259 33.1775 56.4712C32.7441 55.1709 32.6517 53.8066 32.5274 52.4779V51.6732C32.3728 51.7976 32.3408 52.8492 32.3408 53.0055C32.2504 54.4099 32.0641 55.8064 31.7831 57.1853C31.6907 57.7431 31.6285 58.2991 31.2857 58.7947C31.2857 58.8569 31.2857 58.919 31.3159 59.0114C31.8737 60.6528 32.0264 62.3243 32.1206 64.0279V64.6496C32.1206 65.3921 32.0904 65.2358 32.7068 65.4845C32.9555 65.5769 33.2326 65.6088 33.4813 65.7936C33.6678 65.7936 33.698 65.639 33.698 65.5147L33.6056 64.4933V61.644C33.5754 61.1466 33.6678 60.6528 33.73 60.1874L33.7317 60.1856Z" fill="#C2BFBF"/>
</svg>
