<svg width="64" height="70" viewBox="0 0 64 70" fill="none" xmlns="http://www.w3.org/2000/svg">
<g clip-path="url(#clip0_7_414)">
<path d="M51.7303 36.8692C51.6991 31.1526 54.2883 26.838 59.5289 23.6604C56.5966 19.4704 52.167 17.1651 46.3181 16.7134C40.7812 16.2773 34.7295 19.9377 32.5147 19.9377C30.1752 19.9377 24.8098 16.8692 20.5985 16.8692C11.8954 17.0093 2.6463 23.8006 2.6463 37.6168C2.6463 41.6978 3.39496 45.9138 4.89228 50.2648C6.88871 55.9813 14.0946 70 21.6124 69.7663C25.5428 69.6729 28.3191 66.9782 33.4349 66.9782C38.3948 66.9782 40.9683 69.7663 45.3511 69.7663C52.9313 69.6573 59.4509 56.9159 61.3537 51.1838C51.1844 46.4019 51.7303 37.1651 51.7303 36.8692ZM42.9024 11.2928C47.1604 6.2461 46.7705 1.65109 46.6457 0C42.8868 0.218068 38.5352 2.55452 36.0553 5.43614C33.3258 8.52025 31.7193 12.3364 32.0624 16.6355C36.1332 16.947 39.8454 14.8598 42.9024 11.2928Z" fill="black"/>
</g>
<defs>
<clipPath id="clip0_7_414">
<rect width="62.5232" height="70" fill="white" transform="translate(0.738403)"/>
</clipPath>
</defs>
</svg>
