<svg width="68" height="70" viewBox="0 0 68 70" fill="none" xmlns="http://www.w3.org/2000/svg">
<g clip-path="url(#clip0_7_440)">
<path d="M67.6898 41.9125C67.2827 40.68 66.2161 39.8215 64.8367 39.6155C64.1863 39.5185 63.4415 39.5598 62.56 39.7414C61.0237 40.0583 59.8838 40.1789 59.052 40.2022C62.1919 34.9037 64.745 28.8615 66.2148 23.1738C68.5915 13.9768 67.3214 9.78708 65.8373 7.89196C61.9096 2.8758 56.1793 0.181069 49.2661 0.098615C45.5782 0.0535437 42.3408 0.781312 40.6519 1.30467C39.0794 1.02735 37.3887 0.872515 35.6146 0.843881C32.2891 0.790856 29.3508 1.51544 26.8402 3.00465C25.4502 2.53485 23.2194 1.87257 20.6432 1.44996C14.5842 0.455738 9.7008 1.23043 6.12884 3.75257C1.80354 6.80628 -0.20154 12.112 0.16929 19.5222C0.287065 21.8749 1.6038 29.0333 3.67706 35.8221C4.8686 39.7242 6.13918 42.9646 7.45353 45.4541C9.3175 48.9842 11.312 51.0631 13.551 51.8097C14.8059 52.2275 17.0861 52.5202 19.4843 50.5238C19.7883 50.8918 20.1939 51.2574 20.7321 51.597C21.4156 52.0279 22.2515 52.3799 23.0862 52.5886C26.0945 53.3402 28.9124 53.1522 31.3164 52.0986C31.3312 52.526 31.3426 52.9343 31.3522 53.2869C31.3681 53.8588 31.384 54.4195 31.405 54.944C31.5474 58.4897 31.7888 61.2468 32.5039 63.1758C32.5432 63.2819 32.596 63.4436 32.6517 63.6151C33.0085 64.7069 33.605 66.5347 35.1228 67.9661C36.6945 69.449 38.5956 69.9036 40.3367 69.9036C41.21 69.9036 42.0431 69.7891 42.7739 69.6327C45.3788 69.0746 48.3372 68.2246 50.4773 65.1788C52.5007 62.2996 53.4842 57.9629 53.6622 51.1299C53.6853 50.9366 53.7065 50.7521 53.727 50.5763L53.7694 50.2152L54.2461 50.2571L54.3689 50.2653C57.022 50.3862 60.2661 49.8239 62.2584 48.8988C63.8327 48.1687 68.8777 45.5066 67.6898 41.9125Z" fill="black"/>
<path d="M63.1534 42.6114C55.2646 44.2379 54.7222 41.5684 54.7222 41.5684C63.0513 29.2154 66.5333 13.5351 63.5287 9.69746C55.3312 -0.771003 41.1413 4.17994 40.9044 4.30826L40.8282 4.32205C39.2696 3.99859 37.5255 3.80611 35.565 3.77403C31.9957 3.71571 29.2879 4.70939 27.2333 6.26674C27.2333 6.26674 1.9197 -4.15638 3.09718 19.3756C3.34759 24.3817 10.2761 57.2548 18.54 47.3256C21.5605 43.6947 24.4791 40.6248 24.4791 40.6248C25.9285 41.5872 27.6638 42.0782 29.4829 41.9019L29.6243 41.7821C29.5803 42.2328 29.6004 42.6737 29.6808 43.1957C27.5518 45.5731 28.1776 45.9904 23.9218 46.8661C19.6153 47.7532 22.1451 49.3323 23.7968 49.7454C25.7993 50.2457 30.4317 50.9546 33.5618 46.575L33.4371 47.0748C34.2711 47.7426 34.8568 51.4183 34.7586 54.7507C34.6605 58.0828 34.595 60.3705 35.252 62.1575C35.9096 63.9444 36.5645 67.965 42.1593 66.7669C46.8339 65.7656 49.2565 63.1708 49.5937 58.8424C49.8327 55.7653 50.3741 56.2203 50.408 53.4691L50.8423 52.1668C51.3428 47.9956 50.9218 46.6498 53.8017 47.2757L54.502 47.3372C56.6214 47.4335 59.396 46.9963 61.0244 46.2399C64.5306 44.6136 66.6102 41.8979 63.1529 42.6114H63.1534Z" fill="#336791"/>
<path d="M28.715 21.6143C28.0041 21.5154 27.3603 21.6069 27.0346 21.8534C26.8515 21.9921 26.7948 22.1528 26.7794 22.2633C26.7385 22.5563 26.9439 22.8803 27.0701 23.0473C27.4272 23.5203 27.9487 23.8453 28.4648 23.9169C28.5396 23.9275 28.6142 23.9323 28.6882 23.9323C29.549 23.9323 30.3317 23.2623 30.4007 22.7679C30.4869 22.1485 29.5874 21.7355 28.715 21.6143ZM52.2656 21.6339C52.1977 21.1485 51.3335 21.0101 50.5133 21.1241C49.6942 21.2381 48.9 21.6077 48.9664 22.0942C49.0194 22.4725 49.703 23.1183 50.512 23.1183C50.5804 23.1183 50.6494 23.1138 50.7189 23.104C51.259 23.0293 51.6553 22.6865 51.8436 22.4889C52.1301 22.1878 52.2961 21.8521 52.2656 21.6339Z" fill="#EEF2F6"/>
<path d="M65.7784 42.4266C65.4776 41.5175 64.5094 41.2251 62.9009 41.557C58.1249 42.5422 56.4145 41.8598 55.853 41.4464C59.5653 35.794 62.6192 28.9612 64.2667 22.5862C65.0471 19.5665 65.4781 16.762 65.5134 14.4761C65.5524 11.9672 65.1248 10.1235 64.2431 8.99726C60.6881 4.45699 55.4705 2.02156 49.1547 1.95474C44.8127 1.90596 41.1442 3.01657 40.433 3.32889C38.9354 2.95665 37.3027 2.72811 35.5252 2.69895C32.2657 2.64619 29.4482 3.42619 27.1155 5.01614C26.1022 4.63914 23.4836 3.74063 20.2811 3.22496C14.7447 2.33414 10.3451 3.00915 7.20551 5.23222C3.45928 7.88506 1.7298 12.6271 2.06482 19.3263C2.17755 21.5801 3.46246 28.5136 5.49009 35.1537C8.15911 43.8933 11.0605 48.8408 14.1131 49.8586C14.4704 49.9776 14.8823 50.0609 15.3367 50.0609C16.4503 50.0609 17.8156 49.5593 19.236 47.8524C20.9686 45.775 22.7608 43.7481 24.6104 41.7741C25.8104 42.4179 27.1288 42.7774 28.4771 42.8134C28.4797 42.8487 28.4832 42.884 28.4863 42.9189C28.2543 43.1956 28.027 43.4762 27.8046 43.7607C26.8704 44.9461 26.676 45.1929 23.6687 45.8117C22.8133 45.9883 20.5413 46.4562 20.5079 48.0481C20.4719 49.7873 23.1937 50.5177 23.5037 50.5951C24.5844 50.8655 25.6255 50.9989 26.6184 50.9989C29.033 50.9989 31.158 50.2056 32.8562 48.6708C32.804 54.871 33.0626 60.9806 33.8074 62.842C34.4175 64.366 35.9077 68.0902 40.615 68.0899C41.3057 68.0899 42.066 68.0096 42.9023 67.8304C47.8152 66.7778 49.9486 64.6075 50.7738 59.8228C51.2155 57.2657 51.9733 51.1596 52.3298 47.8842C53.0821 48.1188 54.0506 48.2262 55.0975 48.226C57.2811 48.226 59.8008 47.7622 61.381 47.0292C63.1561 46.2052 66.3593 44.1833 65.7784 42.4266ZM54.0789 20.294C54.0628 21.2609 53.9296 22.1387 53.7885 23.055C53.6365 24.0405 53.4795 25.0593 53.4399 26.2961C53.401 27.4998 53.5514 28.7512 53.6967 29.9615C53.9906 32.4059 54.2922 34.9225 53.1248 37.4057C52.9309 37.0622 52.7582 36.7073 52.6076 36.3428C52.4625 35.9912 52.1473 35.4265 51.711 34.6449C50.0136 31.6024 46.0387 24.4774 48.0735 21.57C48.6796 20.7047 50.2179 19.8149 54.0789 20.294ZM49.3987 3.91269C55.0578 4.03757 59.5342 6.15353 62.7035 10.2015C65.1344 13.3063 62.4576 27.4341 54.7087 39.6221C54.6307 39.5231 54.5524 39.4244 54.4737 39.326L54.3755 39.2035C56.3779 35.8982 55.9864 32.6279 55.6379 29.7284C55.4946 28.5386 55.3593 27.4147 55.3938 26.359C55.4294 25.2401 55.5774 24.2804 55.7206 23.3525C55.8965 22.209 56.0755 21.0257 56.0262 19.6309C56.0631 19.4845 56.0779 19.3117 56.0586 19.1065C55.9326 17.7689 54.4047 13.7658 51.2906 10.1426C49.5871 8.16079 47.1029 5.94302 43.7111 4.44718C45.17 4.14494 47.165 3.86311 49.3987 3.91269ZM17.7328 46.6031C16.1678 48.4839 15.0871 48.1234 14.7317 48.0051C12.416 47.2331 9.72891 42.341 7.35989 34.5834C5.30998 27.871 4.11208 21.1212 4.01711 19.2284C3.7179 13.2424 5.16966 9.0707 8.33233 6.8288C13.4794 3.18068 21.9416 5.36425 25.342 6.47168C25.2932 6.51993 25.2422 6.565 25.194 6.61405C19.614 12.2464 19.7464 21.8693 19.7602 22.4577C19.7596 22.6846 19.7787 23.0059 19.8047 23.4479C19.9008 25.0665 20.0795 28.0788 19.6021 31.4902C19.1586 34.6603 20.1363 37.7631 22.2841 40.0031C22.5045 40.2326 22.7362 40.4509 22.9783 40.6574C22.0223 41.6808 19.9445 43.9439 17.7328 46.6031ZM23.6955 38.6512C21.9645 36.8457 21.1782 34.3345 21.5382 31.7606C22.0422 28.157 21.8562 25.0185 21.7562 23.3323C21.7422 23.0963 21.7297 22.8895 21.7225 22.7265C22.5377 22.004 26.3152 19.9811 29.0092 20.5981C30.2384 20.8794 30.9875 21.7161 31.2989 23.1552C32.9106 30.606 31.5121 33.7114 30.3885 36.207C30.1569 36.7211 29.9381 37.2071 29.7514 37.7098L29.6065 38.0984C29.2399 39.081 28.8988 39.9946 28.6874 40.8621C26.8471 40.8568 25.0568 40.071 23.6955 38.651V38.6512ZM23.978 48.6995C23.4406 48.5653 22.9573 48.3323 22.6738 48.139C22.9106 48.0276 23.3321 47.876 24.0632 47.7254C27.6009 46.9976 28.1473 46.4838 29.3405 44.9697C29.614 44.6224 29.924 44.2289 30.3535 43.7496L30.354 43.7491C30.9936 43.0332 31.2861 43.1546 31.8167 43.3747C32.2466 43.5523 32.6655 44.0911 32.8353 44.6839C32.9156 44.9639 33.0058 45.4952 32.7106 45.9088C30.2182 49.3967 26.5863 49.3519 23.978 48.6995ZM42.4928 65.9199C38.1648 66.8467 36.6324 64.6396 35.6226 62.1164C34.9708 60.4875 34.6504 53.1419 34.8777 45.0299C34.8807 44.922 34.8653 44.8178 34.8356 44.7197C34.809 44.526 34.7686 44.3344 34.7146 44.1465C34.3767 42.9661 33.553 41.9788 32.565 41.5695C32.1724 41.4069 31.4519 41.1087 30.5861 41.3301C30.7707 40.5697 31.0909 39.7109 31.4381 38.7811L31.5838 38.3901C31.7477 37.9492 31.9535 37.4924 32.171 37.0088C33.3469 34.3978 34.9573 30.8216 33.2095 22.7424C32.5549 19.7163 30.3686 18.2385 27.0545 18.5818C25.0677 18.7873 23.2499 19.5885 22.3432 20.0479C22.1483 20.1466 21.97 20.242 21.8034 20.3348C22.0565 17.2859 23.0125 11.5878 26.5887 7.98263C28.8405 5.71316 31.8392 4.59221 35.4929 4.65266C42.692 4.77037 47.3085 8.46303 49.9139 11.5403C52.159 14.1919 53.3747 16.863 53.8598 18.3037C50.2112 17.9328 47.7297 18.6526 46.4719 20.4501C43.7352 24.3602 47.969 31.9491 50.0038 35.5965C50.377 36.2648 50.699 36.8425 50.8004 37.0881C51.463 38.6931 52.3208 39.7648 52.9471 40.5469C53.1391 40.7865 53.3254 41.0191 53.467 41.2221C52.3619 41.5406 50.377 42.2763 50.5579 45.9538C50.412 47.7991 49.3746 56.4385 48.8475 59.4909C48.1518 63.5234 46.6671 65.0253 42.4928 65.9201V65.9199ZM60.5579 45.2571C59.4279 45.7812 57.5368 46.1744 55.7405 46.259C53.7564 46.3518 52.7463 46.0368 52.5086 45.843C52.3972 43.5513 53.2505 43.3119 54.1538 43.0584C54.2957 43.0186 54.4341 42.9797 54.5678 42.933C54.6508 43.0006 54.7418 43.0677 54.8416 43.1334C56.4363 44.1854 59.2807 44.2989 63.2964 43.4704L63.3404 43.4617C62.7988 43.9678 61.872 44.647 60.5579 45.2571Z" fill="#EEF2F6"/>
</g>
<defs>
<clipPath id="clip0_7_440">
<rect width="67.906" height="70" fill="white" transform="translate(0.0469971)"/>
</clipPath>
</defs>
</svg>
