<svg width="242" height="70" viewBox="0 0 242 70" fill="none" xmlns="http://www.w3.org/2000/svg">
<g clip-path="url(#clip0_7_313)">
<path d="M91.3707 29.8041C91.3707 22.4113 89.2633 18.6159 85.0482 18.4082C83.3707 18.329 81.7339 18.5961 80.1407 19.2149C78.8693 19.6698 78.0136 20.1206 77.5634 20.576V38.222C80.2595 39.9146 82.6536 40.7015 84.7416 40.5776C89.1588 40.2847 91.3707 36.6974 91.3707 29.8041ZM96.57 30.1108C96.57 33.8666 95.6894 36.9842 93.918 39.4632C91.9442 42.2692 89.2085 43.714 85.711 43.7932C83.0743 43.877 80.3579 43.051 77.5629 41.3188V57.3569L73.0411 55.7435V20.145C73.7832 19.2347 74.7384 18.4529 75.8956 17.7894C78.5871 16.2206 81.8567 15.4144 85.7059 15.3749L85.7699 15.4388C89.2877 15.3947 91.998 16.8395 93.9028 19.7688C95.6792 22.456 96.57 25.9001 96.57 30.1108ZM124.204 40.6365C124.204 45.6742 123.7 49.1625 122.691 51.1023C121.677 53.0416 119.747 54.5906 116.898 55.744C114.587 56.6543 112.089 57.1493 109.408 57.2335L108.66 54.3834C111.386 54.0128 113.306 53.6412 114.419 53.2701C116.61 52.5279 118.114 51.3902 118.941 49.8656C119.603 48.6238 119.93 46.2534 119.93 42.7454V41.5676C116.838 42.9733 113.598 43.6709 110.209 43.6709C107.983 43.6709 106.019 42.9733 104.327 41.5676C102.427 40.0384 101.477 38.0991 101.477 35.7485V16.9238L105.999 15.3749V34.322C105.999 36.3456 106.652 37.9047 107.958 38.9982C109.264 40.0917 110.956 40.6167 113.029 40.5766C115.102 40.5319 117.323 39.7303 119.682 38.1615V16.0572H124.204L124.204 40.6365ZM141.855 43.546C141.36 43.5878 140.863 43.6092 140.366 43.61C137.809 43.61 135.814 43.0018 134.39 41.7793C132.97 40.5573 132.258 38.8703 132.258 36.7172V18.9027H129.161V16.0577H132.258V8.50138L136.775 6.89305V16.0577H141.855V18.9027H136.775V36.5933C136.775 38.291 137.23 39.4932 138.14 40.1963C138.921 40.7751 140.163 41.1066 141.855 41.1909V43.546H141.855ZM169.233 43.1749H164.711V25.7168C164.711 23.9404 164.296 22.4113 163.47 21.135C162.515 19.6896 161.189 18.9672 159.487 18.9672C157.414 18.9672 154.822 20.0607 151.71 22.2478V43.1749H147.189V1.44514L151.71 0.0200806V19.0266C154.599 16.9233 157.756 15.8693 161.184 15.8693C163.579 15.8693 165.518 16.676 167.002 18.2844C168.491 19.8922 169.233 21.8965 169.233 24.2917L169.233 43.1749ZM193.266 29.0918C193.266 26.2514 192.727 23.9059 191.653 22.0503C190.376 19.7891 188.393 18.5961 185.711 18.4727C180.754 18.7596 178.28 22.3123 178.28 29.1218C178.28 32.244 178.795 34.852 179.834 36.9451C181.16 39.6125 183.149 40.9289 185.801 40.8842C190.777 40.8441 193.266 36.9152 193.266 29.0918ZM198.218 29.1213C198.218 33.1645 197.184 36.5294 195.121 39.216C192.85 42.225 189.714 43.7338 185.711 43.7338C181.744 43.7338 178.652 42.2245 176.421 39.216C174.397 36.5294 173.388 33.1645 173.388 29.1213C173.388 25.3213 174.481 22.1245 176.668 19.5216C178.978 16.7603 182.015 15.3749 185.771 15.3749C189.525 15.3749 192.583 16.7603 194.938 19.5216C197.125 22.1245 198.218 25.3213 198.218 29.1213ZM224.14 43.1749H219.619V24.7273C219.619 22.7037 219.011 21.1248 217.793 19.9866C216.576 18.8535 214.953 18.3042 212.93 18.3483C210.784 18.3879 208.74 19.0906 206.801 20.4516V43.1749H202.279V19.8927C204.881 17.998 207.276 16.7603 209.463 16.1816C211.525 15.6424 213.346 15.3749 214.914 15.3749C215.987 15.3749 216.997 15.4784 217.947 15.6866C219.723 16.0973 221.168 16.8593 222.28 17.9777C223.522 19.2149 224.14 20.6989 224.14 22.4362V43.1749Z" fill="#646464"/>
<path d="M28.3821 1.61219C26.0555 1.62285 23.834 1.82135 21.8795 2.16759C16.1208 3.18549 15.0753 5.31521 15.0753 9.24363V14.4316H28.6836V16.1608H9.96784C6.01304 16.1608 2.54954 18.5387 1.46644 23.0622C0.216856 28.2471 0.161533 31.4825 1.46644 36.8964C2.43382 40.9264 4.74417 43.7978 8.69897 43.7978H13.378V37.5788C13.378 33.0858 17.2643 29.1229 21.8795 29.1229H35.4721C39.2558 29.1229 42.2762 26.0067 42.2762 22.2057V9.24313C42.2762 5.55432 39.165 2.7829 35.4721 2.16708C33.1338 1.7782 30.7087 1.60102 28.3821 1.61219ZM21.0227 5.7843C22.4286 5.7843 23.5762 6.95146 23.5762 8.38616C23.5762 9.81579 22.4281 10.9723 21.0227 10.9723C19.6122 10.9723 18.4692 9.8163 18.4692 8.38616C18.4692 6.95146 19.6122 5.7843 21.0227 5.7843Z" fill="url(#paint0_linear_7_313)"/>
<path d="M43.9735 16.1603V22.2047C43.9735 26.8911 40.0014 30.8353 35.4721 30.8353H21.8795C18.1561 30.8353 15.0753 34.0225 15.0753 37.7524V50.714C15.0753 54.4033 18.282 56.5731 21.8795 57.6311C26.187 58.8983 30.3179 59.1272 35.4721 57.6311C38.898 56.6391 42.2762 54.6419 42.2762 50.714V45.5265H28.6836V43.7973H49.0804C53.0357 43.7973 54.5091 41.0376 55.8846 36.8959C57.3057 32.6325 57.2453 28.5314 55.8846 23.0617C54.907 19.1236 53.0403 16.1603 49.0804 16.1603H43.9735ZM36.3283 48.9848C37.7388 48.9848 38.8818 50.1408 38.8818 51.5709C38.8818 53.0056 37.7388 54.1728 36.3283 54.1728C34.9224 54.1728 33.7748 53.0056 33.7748 51.5709C33.7748 50.1413 34.9229 48.9848 36.3283 48.9848Z" fill="url(#paint1_linear_7_313)"/>
<path d="M232.946 12.0252H233.739V7.05195H235.616V6.45898H231.067V7.05195H232.945L232.946 12.0252ZM236.319 12.0252H236.996V7.48297L238.466 12.0247H239.22L240.752 7.49821V12.0252H241.491V6.45949H240.514L238.839 11.2281L237.412 6.45949H236.319V12.0252Z" fill="#646464"/>
<path opacity="0.444" d="M47.0746 66.4429C47.0746 68.3965 38.9097 69.9799 28.8374 69.9799C18.7656 69.9799 10.6007 68.3965 10.6007 66.4429C10.6007 64.4894 18.7656 62.9054 28.8374 62.9054C38.9097 62.9054 47.0746 64.4894 47.0746 66.4429Z" fill="url(#paint2_radial_7_313)"/>
</g>
<defs>
<linearGradient id="paint0_linear_7_313" x1="-0.833766" y1="3.23218" x2="30.5539" y2="29.9684" gradientUnits="userSpaceOnUse">
<stop stop-color="#5A9FD4"/>
<stop offset="1" stop-color="#306998"/>
</linearGradient>
<linearGradient id="paint1_linear_7_313" x1="42.3219" y1="46.6489" x2="31.0593" y2="30.8723" gradientUnits="userSpaceOnUse">
<stop stop-color="#FFD43B"/>
<stop offset="1" stop-color="#FFE873"/>
</linearGradient>
<radialGradient id="paint2_radial_7_313" cx="0" cy="0" r="1" gradientUnits="userSpaceOnUse" gradientTransform="translate(28.8316 66.3616) rotate(-90) scale(3.53649 15.5438)">
<stop stop-color="#B8B8B8" stop-opacity="0.498"/>
<stop offset="1" stop-color="#7F7F7F" stop-opacity="0"/>
</radialGradient>
<clipPath id="clip0_7_313">
<rect width="240.984" height="70" fill="white" transform="translate(0.508179)"/>
</clipPath>
</defs>
</svg>
