<svg width="29" height="30" viewBox="0 0 29 30" fill="none" xmlns="http://www.w3.org/2000/svg">
<g clip-path="url(#clip0_14_587)">
<path d="M14.2213 0.822519C13.0343 0.827958 11.9008 0.929235 10.9036 1.10589C7.96553 1.62522 7.43209 2.71181 7.43209 4.71611V7.36304H14.3751V8.24526H4.82625C2.80849 8.24526 1.0414 9.45852 0.488797 11.7664C-0.148743 14.4118 -0.176969 16.0625 0.488797 18.8247C0.98236 20.8808 2.16111 22.3458 4.17887 22.3458H6.56615V19.1728C6.56615 16.8805 8.54895 14.8586 10.9036 14.8586H17.8386C19.7691 14.8586 21.3101 13.2687 21.3101 11.3294V4.71585C21.3101 2.83381 19.7227 1.41982 17.8386 1.10563C16.6456 0.907219 15.4083 0.81682 14.2213 0.822519ZM10.4665 2.95115C11.1838 2.95115 11.7693 3.54664 11.7693 4.27863C11.7693 5.00803 11.1835 5.59808 10.4665 5.59808C9.74686 5.59808 9.1637 5.00829 9.1637 4.27863C9.1637 3.54664 9.74686 2.95115 10.4665 2.95115Z" fill="url(#paint0_linear_14_587)"/>
<path d="M22.1761 8.245V11.3289C22.1761 13.7199 20.1495 15.7322 17.8386 15.7322H10.9036C9.00397 15.7322 7.43213 17.3584 7.43213 19.2614V25.8744C7.43213 27.7567 9.06819 28.8638 10.9036 29.4036C13.1014 30.0501 15.209 30.1669 17.8386 29.4036C19.5866 28.8975 21.3102 27.8785 21.3102 25.8744V23.2278H14.3752V22.3455H24.7817C26.7997 22.3455 27.5514 20.9375 28.2532 18.8244C28.9782 16.6492 28.9474 14.5568 28.2532 11.7661C27.7544 9.7569 26.802 8.245 24.7817 8.245H22.1761ZM18.2755 24.9922C18.9951 24.9922 19.5783 25.582 19.5783 26.3117C19.5783 27.0436 18.9951 27.6391 18.2755 27.6391C17.5582 27.6391 16.9727 27.0436 16.9727 26.3117C16.9727 25.5823 17.5585 24.9922 18.2755 24.9922Z" fill="url(#paint1_linear_14_587)"/>
</g>
<defs>
<linearGradient id="paint0_linear_14_587" x1="-0.684775" y1="1.64905" x2="15.3294" y2="15.29" gradientUnits="userSpaceOnUse">
<stop stop-color="#5A9FD4"/>
<stop offset="1" stop-color="#306998"/>
</linearGradient>
<linearGradient id="paint1_linear_14_587" x1="21.3335" y1="23.8004" x2="15.5872" y2="15.7511" gradientUnits="userSpaceOnUse">
<stop stop-color="#FFD43B"/>
<stop offset="1" stop-color="#FFE873"/>
</linearGradient>
<clipPath id="clip0_14_587">
<rect width="29" height="30" fill="white"/>
</clipPath>
</defs>
</svg>
