<svg width="68" height="70" viewBox="0 0 68 70" fill="none" xmlns="http://www.w3.org/2000/svg">
<g clip-path="url(#clip0_7_451)">
<path d="M64.3637 27.9762H42.364C41.8337 27.976 41.3252 27.7655 40.9502 27.3909C40.5752 27.0163 40.3644 26.5083 40.3641 25.9785V3.07225C40.3641 1.37598 38.9874 0 37.2903 0H29.4369C27.7388 0 26.3628 1.37598 26.3628 3.07225V25.8398C26.3628 27.021 25.4069 27.9811 24.2246 27.9863L17.015 28.0207C15.8226 28.0271 14.8538 27.0606 14.8562 25.8703L14.9009 3.07742C14.9048 1.37856 13.5275 0 11.827 0H3.98013C2.28173 0 0.906006 1.37598 0.906006 3.07225V67.2129C0.906006 68.7198 2.1279 69.9406 3.63497 69.9406H64.3637C65.8721 69.9406 67.094 68.7198 67.094 67.2129V30.7039C67.094 29.197 65.8721 27.9762 64.3637 27.9762ZM54.0472 52.0586C54.0472 54.0333 52.4447 55.6345 50.4681 55.6345H44.2617C42.2849 55.6345 40.6824 54.0333 40.6824 52.0586V45.858C40.6824 43.883 42.2849 42.2821 44.2617 42.2821H50.4681C52.4447 42.2821 54.0472 43.883 54.0472 45.858V52.0586Z" fill="#FF6600"/>
</g>
<defs>
<clipPath id="clip0_7_451">
<rect width="66.1985" height="70" fill="white" transform="translate(0.900757)"/>
</clipPath>
</defs>
</svg>
