<svg width="62" height="70" viewBox="0 0 62 70" fill="none" xmlns="http://www.w3.org/2000/svg">
<g clip-path="url(#clip0_7_424)">
<path d="M61.5319 35.0063C61.5319 30.9367 56.4661 27.08 48.6993 24.6883C50.4916 16.7244 49.695 10.3884 46.185 8.35986C45.376 7.88403 44.43 7.65864 43.397 7.65864V10.451C43.9695 10.451 44.4301 10.5637 44.8159 10.7766C46.5087 11.7533 47.243 15.4722 46.6705 20.2556C46.5336 21.4326 46.3095 22.6723 46.0357 23.937C43.5961 23.3359 40.9325 22.8726 38.132 22.5721C36.4517 20.2556 34.7091 18.1519 32.9541 16.3112C37.0118 12.5171 40.8205 10.4385 43.4094 10.4385V7.64612C39.9866 7.64612 35.5057 10.1004 30.9751 14.3578C26.4445 10.1254 21.9636 7.69621 18.5408 7.69621V10.4886C21.1173 10.4886 24.9384 12.5547 28.9961 16.3237C27.2535 18.1644 25.511 20.2556 23.8556 22.5721C21.0426 22.8726 18.379 23.3359 15.9394 23.9495C15.6531 22.6973 15.4415 21.4827 15.2922 20.3182C14.7072 15.5349 15.4291 11.8159 17.1094 10.8267C17.4828 10.6013 17.9682 10.5011 18.5408 10.5011V7.70873C17.4953 7.70873 16.5493 7.93412 15.7278 8.40995C12.2303 10.4385 11.4461 16.762 13.2509 24.7008C5.50902 27.105 0.468079 30.9492 0.468079 35.0063C0.468079 39.0759 5.53391 42.9326 13.3007 45.3242C11.5084 53.2881 12.305 59.6241 15.8149 61.6527C16.624 62.1285 17.5699 62.3539 18.6155 62.3539C22.0383 62.3539 26.5192 59.8996 31.0498 55.6422C35.5804 59.8746 40.0612 62.3038 43.4841 62.3038C44.5296 62.3038 45.4756 62.0784 46.2971 61.6026C49.7946 59.5741 50.5788 53.2505 48.774 45.3117C56.491 42.9201 61.5319 39.0633 61.5319 35.0063ZM45.3262 26.6542C44.8657 28.2695 44.2931 29.9349 43.6459 31.6003C43.1356 30.5986 42.6004 29.5968 42.0154 28.5951C41.4428 27.5934 40.8329 26.6167 40.223 25.665C41.9905 25.928 43.6957 26.2535 45.3262 26.6542ZM39.6256 39.9899C38.6548 41.6804 37.659 43.2832 36.6259 44.7733C34.7714 44.9361 32.8919 45.0237 31 45.0237C29.1205 45.0237 27.2411 44.9361 25.399 44.7858C24.3659 43.2957 23.3577 41.7054 22.3868 40.0275C21.4409 38.3872 20.5821 36.7218 19.7979 35.0438C20.5696 33.3659 21.4409 31.688 22.3744 30.0476C23.3452 28.3572 24.341 26.7544 25.3741 25.2643C27.2286 25.1015 29.1081 25.0139 31 25.0139C32.8795 25.0139 34.7589 25.1015 36.601 25.2518C37.6341 26.7419 38.6423 28.3321 39.6132 30.0101C40.5591 31.6504 41.4179 33.3158 42.2021 34.9937C41.4179 36.6717 40.5591 38.3496 39.6256 39.9899ZM43.6459 38.3621C44.318 40.04 44.8906 41.718 45.3636 43.3458C43.733 43.7465 42.0154 44.0846 40.2355 44.3475C40.8454 43.3834 41.4553 42.3941 42.0278 41.3799C42.6004 40.3781 43.1356 39.3639 43.6459 38.3621ZM31.0249 51.7229C29.8673 50.5208 28.7098 49.181 27.5647 47.7159C28.6849 47.766 29.83 47.8036 30.9875 47.8036C32.1575 47.8036 33.3151 47.7785 34.4478 47.7159C33.3275 49.181 32.17 50.5208 31.0249 51.7229ZM21.7645 44.3475C19.9971 44.0846 18.2918 43.759 16.6613 43.3583C17.1218 41.743 17.6944 40.0776 18.3416 38.4122C18.8519 39.4139 19.3872 40.4157 19.9722 41.4174C20.5572 42.4192 21.1546 43.3959 21.7645 44.3475ZM30.9627 18.2897C32.1202 19.4917 33.2778 20.8316 34.4229 22.2966C33.3026 22.2465 32.1575 22.209 31 22.209C29.83 22.209 28.6725 22.234 27.5398 22.2966C28.66 20.8316 29.8176 19.4917 30.9627 18.2897ZM21.7521 25.665C21.1422 26.6292 20.5323 27.6184 19.9597 28.6327C19.3872 29.6344 18.8519 30.6362 18.3416 31.6379C17.6695 29.96 17.097 28.2821 16.624 26.6542C18.2545 26.266 19.9722 25.928 21.7521 25.665ZM10.4877 41.3423C6.08157 39.4515 3.23126 36.9722 3.23126 35.0063C3.23126 33.0403 6.08157 30.5485 10.4877 28.6702C11.5581 28.2069 12.7281 27.7937 13.9355 27.4055C14.6449 29.8598 15.5785 32.4143 16.736 35.0313C15.5909 37.6359 14.6698 40.1778 13.9728 42.6195C12.7406 42.2314 11.5706 41.8056 10.4877 41.3423ZM17.1841 59.236C15.4913 58.2593 14.757 54.5403 15.3295 49.757C15.4664 48.5799 15.6905 47.3403 15.9643 46.0756C18.4039 46.6766 21.0675 47.1399 23.868 47.4404C25.5483 49.757 27.2909 51.8606 29.0459 53.7013C24.9882 57.4954 21.1795 59.5741 18.5906 59.5741C18.0305 59.5615 17.5575 59.4488 17.1841 59.236ZM46.7078 49.6944C47.2928 54.4777 46.5709 58.1967 44.8906 59.1859C44.5172 59.4113 44.0318 59.5115 43.4592 59.5115C40.8827 59.5115 37.0616 57.4454 33.0039 53.6763C34.7465 51.8356 36.489 49.7444 38.1444 47.4279C40.9574 47.1274 43.621 46.6641 46.0606 46.0505C46.3469 47.3152 46.5709 48.5298 46.7078 49.6944ZM51.4998 41.3423C50.4294 41.8056 49.2594 42.2188 48.0521 42.607C47.3426 40.1527 46.4091 37.5983 45.2515 34.9812C46.3966 32.3767 47.3177 29.8348 48.0147 27.393C49.247 27.7812 50.4169 28.2069 51.5123 28.6702C55.9184 30.561 58.7687 33.0403 58.7687 35.0063C58.7563 36.9722 55.906 39.464 51.4998 41.3423Z" fill="#61DAFB"/>
<path d="M30.9875 40.7287C34.129 40.7287 36.6757 38.1667 36.6757 35.0063C36.6757 31.8458 34.129 29.2838 30.9875 29.2838C27.8461 29.2838 25.2994 31.8458 25.2994 35.0063C25.2994 38.1667 27.8461 40.7287 30.9875 40.7287Z" fill="#61DAFB"/>
</g>
<defs>
<clipPath id="clip0_7_424">
<rect width="61.0638" height="70" fill="white" transform="translate(0.468079)"/>
</clipPath>
</defs>
</svg>
