<svg width="74" height="70" viewBox="0 0 74 70" fill="none" xmlns="http://www.w3.org/2000/svg">
<g clip-path="url(#clip0_7_417)">
<path d="M51.164 48.6928C53.8737 48.4123 55.9295 46.076 55.836 43.2723C55.7428 40.4687 53.4065 38.2258 50.6033 38.2258H50.4166C47.5196 38.3193 45.2771 40.749 45.3706 43.646C45.4641 45.0479 46.0246 46.2628 46.8656 47.1039C43.6886 53.3655 38.8297 57.9447 31.5413 61.7763C26.5888 64.3931 21.4497 65.3277 16.3105 64.6736C12.1055 64.1128 8.83507 62.2439 6.77905 59.1596C3.78911 54.5804 3.50888 49.6271 6.03186 44.6741C7.80735 41.1228 10.6103 38.506 12.3858 37.1976C12.012 35.9828 11.4513 33.9268 11.171 32.4317C-2.37807 42.2444 -0.976317 55.515 3.13514 61.7763C6.21858 66.4493 12.4793 69.3463 19.3939 69.3463C21.2626 69.3463 23.1314 69.1593 25.0004 68.6923C36.961 66.3558 46.0249 59.2531 51.164 48.6928ZM67.6099 37.1044C60.5082 28.7868 50.0428 24.2076 38.0822 24.2076H36.5872C35.7462 22.5255 33.9707 21.4038 32.0085 21.4038H31.8215C28.9251 21.4974 26.6826 23.9271 26.7759 26.8244C26.8694 29.6279 29.2053 31.8709 32.0085 31.8709H32.1953C34.251 31.7774 36.0265 30.469 36.774 28.6933H38.4559C45.5576 28.6933 52.2853 30.7493 58.3592 34.7679C63.0312 37.852 66.3951 41.8706 68.2638 46.7301C69.8523 50.6552 69.7588 54.4869 68.0768 57.758C65.4606 62.7109 61.0689 65.4212 55.2755 65.4212C51.5378 65.4212 47.9871 64.2996 46.1181 63.4585C45.0904 64.3931 43.2214 65.8882 41.9131 66.8231C45.9314 68.692 50.0428 69.7201 53.9673 69.7201C62.9377 69.7201 69.5721 64.7669 72.0951 59.8139C74.8048 54.3933 74.6177 45.0479 67.6099 37.1044ZM20.1414 50.2812C20.2349 53.085 22.5709 55.3277 25.3741 55.3277H25.5611C28.4578 55.2344 30.7003 52.8044 30.6068 49.9074C30.5136 47.1036 28.1773 44.8609 25.3741 44.8609H25.1874C25.0004 44.8609 24.7198 44.8609 24.5334 44.9541C20.7022 38.5993 19.1137 31.6839 19.6745 24.2074C20.0479 18.6001 21.9169 13.7403 25.1874 9.72165C27.8971 6.26381 33.1298 4.58165 36.6807 4.48842C46.5853 4.30138 50.79 16.6373 51.0705 21.5906C52.2853 21.8709 54.341 22.5252 55.7427 22.9925C54.6212 7.85303 45.2771 0.00274658 36.307 0.00274658C27.8971 0.00274658 20.1414 6.07735 17.0577 15.049C12.7595 27.0112 15.5627 38.506 20.7954 47.5712C20.3284 48.2252 20.0479 49.2531 20.1414 50.2812Z" fill="#764ABC"/>
</g>
<defs>
<clipPath id="clip0_7_417">
<rect width="73.4291" height="70" fill="white" transform="translate(0.285461)"/>
</clipPath>
</defs>
</svg>
