<svg width="31" height="30" viewBox="0 0 31 30" fill="none" xmlns="http://www.w3.org/2000/svg">
<g clip-path="url(#clip0_14_726)">
<path d="M30.4826 8.30904C30.4814 8.00734 30.477 7.70566 30.4693 7.40406C30.4511 6.747 30.4129 6.08388 30.2959 5.43409C30.1844 4.7823 29.9762 4.15081 29.6782 3.5605C29.0746 2.37451 28.1108 1.41026 26.925 0.806173C26.3348 0.508538 25.7035 0.300566 25.0519 0.189117C24.4009 0.0721313 23.7378 0.033338 23.0807 0.0157598C22.7782 0.00727374 22.4769 0.00363687 22.1751 0.00181843C21.8168 0 21.4586 0 21.0997 0H9.8686C9.50975 0 9.15211 0 8.79386 0.00181843C8.49199 0.00424301 8.19012 0.00787988 7.88825 0.0157598C7.72397 0.0200028 7.5591 0.0260642 7.39422 0.0339441C6.90019 0.0575838 6.40495 0.101226 5.91698 0.189117C5.43043 0.27377 4.95445 0.410745 4.49733 0.597659C3.73147 0.914674 3.03549 1.37933 2.44909 1.96512C1.98138 2.43253 1.59025 2.97072 1.29009 3.55989C0.984583 4.15997 0.791215 4.77339 0.673012 5.43348C0.556021 6.08388 0.517226 6.747 0.499647 7.40345C0.491161 7.70653 0.487524 8.00778 0.485705 8.30904C0.483887 8.66787 0.483887 9.0261 0.483887 9.38434V20.615C0.483887 20.9738 0.483887 21.3321 0.485705 21.6903C0.48813 21.9922 0.491767 22.294 0.499647 22.5953C0.517832 23.2529 0.556021 23.9161 0.673012 24.5652C0.78429 25.2174 0.992274 25.8493 1.29009 26.44C1.89379 27.6264 2.85816 28.5907 4.04453 29.1944C4.64403 29.4993 5.25747 29.6926 5.91759 29.8114C6.5674 29.9284 7.23116 29.9672 7.88825 29.9848C8.19012 29.9927 8.49199 29.9963 8.79386 29.9981C9.1515 30.0005 9.50975 29.9999 9.8686 29.9999H21.0997C21.4573 29.9999 21.8162 30.0005 22.1744 29.9981C22.4763 29.9963 22.7776 29.9927 23.0795 29.9848C23.7372 29.9666 24.4009 29.9284 25.0507 29.8114C25.7023 29.7 26.3336 29.492 26.9238 29.1944C28.1099 28.5905 29.074 27.6262 29.6776 26.44C29.9831 25.84 30.1765 25.2259 30.2953 24.5664C30.4123 23.9167 30.4511 23.2535 30.4687 22.5959C30.4765 22.2946 30.4802 21.9928 30.482 21.6909C30.4844 21.3327 30.4838 20.9744 30.4838 20.6156V9.38434C30.4838 9.0261 30.4844 8.66787 30.4826 8.30904Z" fill="#F05138"/>
<path d="M24.3106 18.5104L24.3088 18.5085C24.3415 18.3954 24.3755 18.2836 24.4051 18.168C25.6496 13.2185 22.6118 7.36655 17.4724 4.28577C19.7249 7.33389 20.7203 11.0255 19.8352 14.2539C19.7564 14.5423 19.6619 14.8187 19.5571 15.0873C19.4107 14.9931 19.2607 14.9045 19.1076 14.8218C19.1076 14.8218 13.9942 11.6708 8.45305 6.0965C8.30764 5.95014 11.4078 10.5199 14.9266 14.2309C13.269 13.3025 8.64874 9.94657 5.72429 7.27462C6.08356 7.87336 6.51129 8.44912 6.98083 9.00371C9.42302 12.0954 12.6086 15.9104 16.4242 18.84C13.7434 20.4777 9.95496 20.6047 6.18292 18.8418C5.25944 18.4088 4.38112 17.8858 3.56079 17.2802C5.24746 19.9543 7.70436 22.0572 10.6093 23.313C14.179 24.8443 17.728 24.7403 20.3714 23.3384L20.3696 23.3414C20.3817 23.3335 20.3968 23.3257 20.4095 23.3172C20.518 23.2597 20.6258 23.1999 20.7306 23.1376C22.0011 22.4796 24.51 21.8119 25.8562 24.427C26.1863 25.0675 26.8873 21.6752 24.3112 18.511L24.3106 18.5104Z" fill="#EEF2F6"/>
</g>
<defs>
<clipPath id="clip0_14_726">
<rect width="30.6914" height="30" fill="white" transform="translate(0.154297)"/>
</clipPath>
</defs>
</svg>
