<svg width="555" height="542" viewBox="0 0 555 542" fill="none" xmlns="http://www.w3.org/2000/svg">
<g opacity="0.21">
<path d="M506.821 96.6866C533.8 96.6866 554.998 74.4485 554.998 48.3432C554.998 21.271 532.836 0 506.821 0C479.841 0 458.643 22.2379 458.643 48.3432C458.643 75.4154 479.841 96.6866 506.821 96.6866Z" fill="#D9DADA"/>
<path d="M48.1772 96.6866C75.1565 96.6866 96.3544 74.4485 96.3544 48.3432C96.3544 21.271 74.1929 0 48.1772 0C21.198 0 0 22.2379 0 48.3432C0 75.4154 21.198 96.6866 48.1772 96.6866Z" fill="#D9DADA"/>
<path d="M554.998 196.273C554.998 169.201 532.837 147.93 506.821 147.93C486.587 147.93 468.279 160.499 461.534 179.837C460.571 181.77 456.717 194.34 455.753 198.207C441.3 265.888 410.467 280.39 343.018 296.827L400.831 360.64C411.43 294.893 447.081 262.02 518.384 244.617C538.618 239.782 554.998 217.544 554.998 196.273Z" fill="#D9DADA"/>
<path d="M353.623 245.584C380.602 245.584 401.8 223.346 401.8 197.24C401.8 170.168 379.639 148.897 353.623 148.897C326.644 148.897 305.446 171.135 305.446 197.24C305.446 223.346 327.607 245.584 353.623 245.584Z" fill="#D9DADA"/>
<path d="M201.378 393.513C228.357 393.513 249.555 371.276 249.555 345.17C249.555 318.098 227.394 296.827 201.378 296.827C174.399 296.827 153.201 319.065 153.201 345.17C152.237 371.276 174.399 393.513 201.378 393.513Z" fill="#D9DADA"/>
<path d="M155.131 181.771C156.094 182.737 153.204 193.373 152.24 194.34C151.276 198.207 150.313 203.042 149.349 206.909C147.422 214.644 144.532 221.412 141.641 228.18C135.86 240.749 128.151 251.385 118.516 260.086C95.3909 282.324 63.5939 291.026 33.7241 298.761C33.7241 298.761 33.7241 298.761 32.7605 298.761C13.4896 305.529 0 322.933 0 345.17C0 372.243 22.1615 393.514 48.1772 393.514C66.4846 393.514 82.8648 382.878 90.5732 368.375C95.3909 359.673 98.2815 349.038 100.209 338.402C103.099 329.701 105.99 320.032 109.844 311.33C117.552 293.927 129.115 278.457 144.532 265.888C166.693 248.484 195.6 243.65 222.579 246.55L155.131 181.771Z" fill="#D9DADA"/>
<path d="M506.821 541.444C533.8 541.444 554.998 519.206 554.998 493.101C554.998 466.029 532.836 444.758 506.821 444.758C479.841 444.758 458.643 466.995 458.643 493.101C458.643 519.206 479.841 541.444 506.821 541.444Z" fill="#D9DADA"/>
<path d="M554.999 344.204C554.999 317.132 532.838 295.861 506.822 295.861C486.588 295.861 470.208 308.43 462.499 324.867C453.827 345.171 450.937 368.375 440.338 387.713C433.593 398.348 425.885 408.016 415.286 415.751C404.687 423.486 392.16 429.288 379.634 433.155C372.89 436.056 365.181 437.989 358.436 439.922C353.619 440.889 349.765 441.857 344.947 443.791C340.129 445.724 336.275 447.658 332.421 450.559C328.567 452.492 324.712 455.393 321.822 458.294C315.077 464.095 310.259 471.83 308.332 480.531C307.369 484.398 306.405 489.232 306.405 493.1C306.405 520.172 328.567 541.443 354.582 541.443C374.817 541.443 391.197 528.874 398.905 512.437C399.869 511.47 401.796 506.637 401.796 504.702C401.796 503.735 402.759 501.803 402.759 500.836C415.286 440.89 449.973 410.917 516.458 394.481C520.312 393.514 530.911 387.712 533.801 386.745C546.328 377.076 554.999 361.607 554.999 344.204Z" fill="#D9DADA"/>
<path d="M48.1772 541.444C75.1565 541.444 96.3544 519.206 96.3544 493.101C96.3544 466.029 74.1929 444.758 48.1772 444.758C21.198 444.758 0 466.995 0 493.101C0 519.206 21.198 541.444 48.1772 541.444Z" fill="#D9DADA"/>
<path d="M365.186 297.794C365.186 297.794 364.222 296.827 363.259 296.827C360.368 295.86 356.514 295.86 353.624 295.86C351.696 295.86 349.769 295.86 346.879 296.827C295.811 290.059 240.889 233.981 252.451 177.903C266.905 131.494 310.264 114.09 363.259 96.6866C366.15 95.7195 375.785 90.8852 377.712 89.9183C391.202 81.2166 400.837 65.7468 400.837 48.3432C400.837 21.271 378.676 0 352.66 0C332.426 0 315.082 12.5693 307.373 29.9728C306.41 32.8734 302.556 45.4426 302.556 46.4095C301.592 49.3101 301.592 52.2107 300.629 55.1113C299.665 59.9456 297.738 65.7468 295.811 70.5811C292.92 79.2829 289.066 87.9846 283.285 95.7195C274.613 110.223 261.123 120.858 246.67 127.626C237.998 131.494 229.326 135.361 220.654 138.262C208.128 142.129 195.602 145.03 183.076 150.831C173.441 154.698 165.732 160.5 159.951 169.201C154.17 176.936 151.279 186.605 151.279 196.274C151.279 217.545 164.769 235.915 184.04 242.683C186.93 243.65 195.602 245.584 198.493 245.584C258.233 250.418 303.519 290.059 298.701 353.872C292.92 410.917 253.415 429.288 192.712 444.757C189.821 445.724 186.93 445.724 184.04 447.658C165.732 454.426 152.243 471.83 152.243 493.101C152.243 520.173 174.404 541.444 200.42 541.444C222.581 541.444 240.889 525.974 246.67 505.67C249.561 495.034 252.451 485.366 256.306 475.697C259.196 466.995 264.014 458.294 268.832 450.559C273.649 443.791 279.431 437.023 285.212 431.221C291.957 425.42 298.701 419.619 306.41 415.752C315.082 410.917 323.754 406.083 333.389 403.182C338.207 401.249 343.988 399.315 348.806 397.381C351.696 396.414 354.587 395.447 357.478 394.481C360.368 393.514 363.259 392.547 366.15 391.58C378.676 386.746 388.311 379.011 395.056 367.408C398.91 360.64 400.837 352.905 400.837 344.204C401.801 321.966 386.384 302.629 365.186 297.794Z" fill="#D9DADA"/>
<path d="M249.558 48.3432C249.558 21.271 227.396 0 201.381 0C184.037 0 168.62 10.6355 158.985 25.1385C150.313 39.6414 149.349 57.045 143.568 72.5148C134.896 97.6534 119.479 116.991 95.3909 128.593C82.8648 135.361 68.4117 140.195 54.922 144.063C45.2866 146.963 35.6511 148.897 26.9793 153.732C10.599 161.466 0 177.903 0 197.24C0 224.313 22.1615 245.584 48.1772 245.584C66.4846 245.584 82.8648 234.948 90.5732 219.478C94.4273 211.743 96.3544 204.008 98.2815 195.307C100.209 187.572 103.099 179.837 105.99 172.102C112.735 157.599 122.37 143.096 134.896 132.461C145.495 122.792 158.021 116.024 171.511 110.223C179.219 107.322 186.928 104.421 194.636 101.521C203.308 98.6203 212.943 97.6534 220.652 93.7858C237.032 85.084 249.558 67.6805 249.558 48.3432Z" fill="#D9DADA"/>
</g>
</svg>
